G04*
G04 #@! TF.GenerationSoftware,Altium Limited,Altium Designer,25.8.1 (18)*
G04*
G04 Layer_Physical_Order=4*
G04 Layer_Color=16711680*
%FSLAX44Y44*%
%MOMM*%
G71*
G04*
G04 #@! TF.SameCoordinates,F1196714-0DB9-464D-985B-113CB06F2960*
G04*
G04*
G04 #@! TF.FilePolarity,Positive*
G04*
G01*
G75*
%ADD14C,0.2540*%
%ADD57C,0.6500*%
%ADD59C,0.6000*%
%ADD64C,1.5000*%
%ADD65R,1.5000X2.1000*%
%ADD66C,1.5500*%
%ADD67R,2.1000X1.5000*%
%ADD68R,1.5000X1.5000*%
%ADD69R,1.5500X1.5500*%
%ADD70C,0.6096*%
%ADD71C,0.5080*%
D14*
X41315Y399455D02*
X46606Y404746D01*
X50877D01*
X56849Y410718D01*
X41315Y389890D02*
Y399455D01*
X19050Y367625D02*
X41315Y389890D01*
X19050Y354330D02*
Y367625D01*
X72390Y383540D02*
X85090Y370840D01*
X222250D01*
X224238Y372828D01*
Y374650D01*
X242018Y311150D02*
X256540D01*
X224238Y328930D02*
X242018Y311150D01*
X29122Y413932D02*
X32766Y417576D01*
X19050Y415290D02*
X20408Y413932D01*
X63918Y417576D02*
X104812Y376682D01*
X32766Y417576D02*
X63918D01*
X20408Y413932D02*
X29122D01*
X136470Y376682D02*
X137414Y377626D01*
X139518D02*
X140716Y376428D01*
X192598D02*
X225203Y409033D01*
X137414Y377626D02*
X139518D01*
X140716Y376428D02*
X192598D01*
X104812Y376682D02*
X136470D01*
X201690Y480060D02*
X206756Y474994D01*
Y440944D02*
X223520Y424180D01*
X206756Y440944D02*
Y474994D01*
X58881Y457200D02*
X81741Y480060D01*
X201690D01*
X168910Y349250D02*
X180200Y360540D01*
X168910Y342159D02*
Y349250D01*
X71458Y244707D02*
X168910Y342159D01*
X26990Y230659D02*
X41038Y244707D01*
X25886Y230659D02*
X26990D01*
X22557Y227330D02*
X25886Y230659D01*
X19050Y227330D02*
X22557D01*
X41038Y244707D02*
X71458D01*
X19050Y440690D02*
X35560Y457200D01*
X58881D01*
X60351Y172303D02*
X91023D01*
X91440Y172720D01*
X59934Y171886D02*
X60351Y172303D01*
X264160Y152400D02*
X265430Y151130D01*
X240030Y152400D02*
X264160D01*
X111843Y304883D02*
X163830Y356870D01*
X111843Y304142D02*
Y304883D01*
X60431Y252730D02*
X111843Y304142D01*
X19050Y252730D02*
X60431D01*
X19050Y278130D02*
X66569D01*
X146579Y358140D01*
X147320D01*
X73660Y303530D02*
X129540Y359410D01*
X19050Y303530D02*
X73660D01*
X19050Y328930D02*
X60960Y370840D01*
Y396240D01*
D57*
X183190Y66690D02*
D03*
X240990D02*
D03*
D59*
X157895Y449710D02*
D03*
Y429960D02*
D03*
Y410210D02*
D03*
X138145Y449710D02*
D03*
Y429960D02*
D03*
Y410210D02*
D03*
X167770Y420085D02*
D03*
X148020D02*
D03*
X128270D02*
D03*
X167770Y439835D02*
D03*
X148020D02*
D03*
X128270D02*
D03*
X170180Y104140D02*
D03*
X160020Y168910D02*
D03*
X274320Y447040D02*
D03*
X226060Y262890D02*
D03*
X198120Y175260D02*
D03*
X189230Y203200D02*
D03*
X245110Y92710D02*
D03*
X222250Y123190D02*
D03*
X215900Y142240D02*
D03*
X186690Y346710D02*
D03*
X176530Y342900D02*
D03*
X177800Y257810D02*
D03*
X144780Y177800D02*
D03*
X140970Y323850D02*
D03*
X130810Y134620D02*
D03*
X101600Y170180D02*
D03*
X71120Y273050D02*
D03*
Y326390D02*
D03*
X91440Y107950D02*
D03*
X82550Y78740D02*
D03*
X54610Y182880D02*
D03*
X67310Y162560D02*
D03*
X265430Y196850D02*
D03*
X233680D02*
D03*
X218440Y224790D02*
D03*
D64*
X162720Y117690D02*
D03*
D65*
X109230Y108740D02*
D03*
D66*
X19050Y389890D02*
D03*
Y328930D02*
D03*
Y303530D02*
D03*
Y278130D02*
D03*
Y252730D02*
D03*
Y227330D02*
D03*
Y415290D02*
D03*
Y440690D02*
D03*
D67*
X62230Y78740D02*
D03*
Y138740D02*
D03*
D68*
X182720Y117690D02*
D03*
D69*
X19050Y354330D02*
D03*
Y466090D02*
D03*
D70*
X56849Y410718D02*
D03*
X72390Y383540D02*
D03*
X224238Y374650D02*
D03*
X256540Y311150D02*
D03*
X224238Y328930D02*
D03*
X217170Y97790D02*
D03*
X91440Y172720D02*
D03*
X59934Y171886D02*
D03*
X265430Y152400D02*
D03*
X240030D02*
D03*
X180340Y360680D02*
D03*
X163830Y356870D02*
D03*
X147320Y358140D02*
D03*
X129540Y359410D02*
D03*
X60960Y396240D02*
D03*
X225203Y409033D02*
D03*
X223520Y424180D02*
D03*
X53340Y196850D02*
D03*
X66040Y454660D02*
D03*
D71*
X215900Y380492D02*
D03*
X194056Y391668D02*
D03*
X196850Y468630D02*
D03*
X90170Y201930D02*
D03*
X119380Y160020D02*
D03*
X278130Y29210D02*
D03*
Y72390D02*
D03*
X146050Y30480D02*
D03*
Y71120D02*
D03*
X185420Y179070D02*
D03*
X186690Y469900D02*
D03*
X193040Y454660D02*
D03*
X181610D02*
D03*
X194310Y443230D02*
D03*
Y420370D02*
D03*
X193040Y431800D02*
D03*
Y408940D02*
D03*
X182880Y443230D02*
D03*
X180340Y431800D02*
D03*
X181610Y420370D02*
D03*
Y408940D02*
D03*
X175260Y469900D02*
D03*
X163830D02*
D03*
X152400D02*
D03*
X176530Y391160D02*
D03*
X165100Y392430D02*
D03*
X153670D02*
D03*
X186690Y398780D02*
D03*
X140970Y469900D02*
D03*
X129540D02*
D03*
X119380D02*
D03*
X114300Y454660D02*
D03*
X109220Y469900D02*
D03*
X114300Y431800D02*
D03*
X111760Y443230D02*
D03*
X114300Y400050D02*
D03*
X109220Y420370D02*
D03*
X104140Y454660D02*
D03*
X97790Y469900D02*
D03*
X102870Y431800D02*
D03*
Y400050D02*
D03*
X104140Y411480D02*
D03*
X99060Y420370D02*
D03*
X101600Y443230D02*
D03*
X34965Y394970D02*
D03*
X130810Y392430D02*
D03*
X119380Y389890D02*
D03*
X142240Y392430D02*
D03*
X98298Y392176D02*
D03*
X86360Y345440D02*
D03*
X213360Y154940D02*
D03*
X182880Y104140D02*
D03*
X115570Y229870D02*
D03*
X106680Y248920D02*
D03*
X142240Y190500D02*
D03*
X110490Y205740D02*
D03*
X161290Y344170D02*
D03*
X261620Y383540D02*
D03*
X271780Y416560D02*
D03*
M02*
