G04*
G04 #@! TF.GenerationSoftware,Altium Limited,Altium Designer,25.8.1 (18)*
G04*
G04 Layer_Physical_Order=3*
G04 Layer_Color=16440176*
%FSLAX44Y44*%
%MOMM*%
G71*
G04*
G04 #@! TF.SameCoordinates,F1196714-0DB9-464D-985B-113CB06F2960*
G04*
G04*
G04 #@! TF.FilePolarity,Positive*
G04*
G01*
G75*
%ADD57C,0.6500*%
%ADD59C,0.6000*%
%ADD64C,1.5000*%
%ADD65R,1.5000X2.1000*%
%ADD66C,1.5500*%
%ADD67R,2.1000X1.5000*%
%ADD68R,1.5000X1.5000*%
%ADD69R,1.5500X1.5500*%
%ADD70C,0.6096*%
%ADD71C,0.5080*%
G36*
X76939Y479893D02*
X77728Y479566D01*
X78438Y479092D01*
X79042Y478488D01*
X79517Y477778D01*
X79843Y476989D01*
X80010Y476151D01*
Y459740D01*
X80025Y459440D01*
X80142Y458850D01*
X80372Y458295D01*
X80373Y458293D01*
X80706Y457795D01*
X80908Y457572D01*
X80908Y457572D01*
X80908Y457572D01*
X81280Y457200D01*
X92611D01*
X93449Y457033D01*
X94238Y456707D01*
X94296Y456668D01*
X95250Y455930D01*
X95250Y454750D01*
Y452120D01*
X94664Y451535D01*
X94162Y451199D01*
X93604Y450968D01*
X93012Y450850D01*
X77996D01*
X77571Y450829D01*
X76737Y450663D01*
X75952Y450338D01*
X75245Y449866D01*
X74930Y449580D01*
X74644Y449265D01*
X74172Y448558D01*
X73847Y447773D01*
X73681Y446939D01*
X73660Y446514D01*
X73660Y443230D01*
X73962Y442928D01*
X74436Y442218D01*
X74763Y441429D01*
X74930Y440591D01*
Y389679D01*
X73874Y388974D01*
X73502Y389128D01*
X71279D01*
X69225Y388277D01*
X67653Y386705D01*
X66802Y384651D01*
Y382429D01*
X67653Y380375D01*
X69225Y378803D01*
X71279Y377952D01*
X73502D01*
X73874Y378106D01*
X74930Y377401D01*
Y370096D01*
X74951Y369671D01*
X75117Y368837D01*
X75442Y368052D01*
X75914Y367345D01*
X76200Y367030D01*
X76515Y366744D01*
X77222Y366272D01*
X78007Y365947D01*
X78841Y365781D01*
X79266Y365760D01*
X126949D01*
X127202Y364490D01*
X126375Y364147D01*
X124803Y362575D01*
X123952Y360522D01*
Y358298D01*
X124803Y356245D01*
X126375Y354673D01*
X128428Y353822D01*
X130652D01*
X132705Y354673D01*
X134277Y356245D01*
X135128Y358298D01*
Y360522D01*
X134277Y362575D01*
X132705Y364147D01*
X131878Y364490D01*
X132131Y365760D01*
X175721D01*
X176247Y364490D01*
X175603Y363845D01*
X174752Y361791D01*
Y359568D01*
X175603Y357515D01*
X177175Y355943D01*
X179228Y355092D01*
X181451D01*
X183505Y355943D01*
X185077Y357515D01*
X185928Y359568D01*
Y361791D01*
X185077Y363845D01*
X184433Y364490D01*
X184959Y365760D01*
X215900D01*
X216201Y365775D01*
X216790Y365892D01*
X217345Y366122D01*
X217845Y366456D01*
X218068Y366658D01*
X218812Y367402D01*
X219014Y367625D01*
X219348Y368125D01*
X219578Y368680D01*
X219695Y369269D01*
X219706Y369483D01*
X220040Y369752D01*
X220883Y370102D01*
X221073Y369913D01*
X223126Y369062D01*
X225349D01*
X227403Y369913D01*
X228975Y371485D01*
X229826Y373539D01*
Y375761D01*
X228975Y377815D01*
X227403Y379387D01*
X225349Y380238D01*
X223126D01*
X222250Y379875D01*
X220980Y380724D01*
Y381502D01*
X220207Y383370D01*
X219710Y383866D01*
Y404827D01*
X220980Y405354D01*
X222038Y404296D01*
X224091Y403445D01*
X226315D01*
X228368Y404296D01*
X229940Y405868D01*
X230791Y407922D01*
Y410145D01*
X229940Y412198D01*
X228368Y413770D01*
X226315Y414621D01*
X224091D01*
X222038Y413770D01*
X220980Y412713D01*
X219710Y413239D01*
Y418428D01*
X220980Y419184D01*
X222409Y418592D01*
X224632D01*
X226685Y419443D01*
X228257Y421015D01*
X229108Y423069D01*
Y425291D01*
X228257Y427345D01*
X226685Y428917D01*
X224632Y429768D01*
X223284D01*
X222758Y431038D01*
X222854Y431134D01*
X224274Y432083D01*
X225853Y432737D01*
X227528Y433070D01*
X272384D01*
X273569Y432834D01*
X274685Y432372D01*
X275689Y431701D01*
X276293Y431097D01*
X276571Y430681D01*
X276762Y430219D01*
X276860Y429728D01*
Y420460D01*
X275590Y419934D01*
X274658Y420867D01*
X273050Y421533D01*
Y416560D01*
Y411587D01*
X274658Y412253D01*
X275590Y413186D01*
X276860Y412660D01*
Y363319D01*
X276693Y362481D01*
X276367Y361692D01*
X275892Y360982D01*
X275288Y360378D01*
X274578Y359903D01*
X273789Y359577D01*
X272951Y359410D01*
X270510D01*
X251280Y340179D01*
X249510Y338410D01*
X245350Y335631D01*
X240728Y333716D01*
X235821Y332740D01*
X228330D01*
X227403Y333667D01*
X225349Y334518D01*
X223126D01*
X221073Y333667D01*
X220145Y332740D01*
X75294D01*
X73517Y333093D01*
X71843Y333787D01*
X70336Y334794D01*
X68278Y336852D01*
X67804Y337562D01*
X67477Y338351D01*
X67310Y339189D01*
Y347980D01*
X67281Y348581D01*
X67046Y349760D01*
X66586Y350871D01*
X65918Y351870D01*
X65514Y352316D01*
Y352316D01*
X64770Y353060D01*
X64455Y353346D01*
X63748Y353818D01*
X62963Y354143D01*
X62129Y354309D01*
X61704Y354330D01*
X43579D01*
X38672Y355306D01*
X34050Y357221D01*
X29890Y360000D01*
X29340Y360550D01*
Y364620D01*
X25270D01*
X5746Y384144D01*
X4797Y385564D01*
X4143Y387142D01*
X3810Y388818D01*
Y389672D01*
X3810Y389890D01*
X4096Y390205D01*
X4568Y390912D01*
X4893Y391697D01*
X5059Y392531D01*
X5080Y392956D01*
Y463550D01*
Y474881D01*
X5247Y475719D01*
X5573Y476508D01*
X6048Y477218D01*
X6954Y478124D01*
X8374Y479073D01*
X9952Y479727D01*
X11628Y480060D01*
X76101D01*
X76939Y479893D01*
D02*
G37*
G36*
X114300Y240030D02*
X148590D01*
Y187960D01*
X220930D01*
Y179169D01*
X220980Y178919D01*
Y148590D01*
X199390D01*
Y96580D01*
X199371Y96567D01*
X199135Y96520D01*
X179540D01*
X179304Y96567D01*
X179104Y96700D01*
X178762Y97042D01*
X178345Y97322D01*
X177922Y97604D01*
X177828Y97643D01*
X177828Y97643D01*
X177828Y97643D01*
X177375Y97733D01*
X176837Y97840D01*
X176837Y97840D01*
X176837Y97840D01*
X173683D01*
X172692Y97643D01*
X172692Y97643D01*
X172692Y97643D01*
X172598Y97604D01*
X172175Y97322D01*
X171758Y97042D01*
X171416Y96700D01*
X171216Y96567D01*
X170980Y96520D01*
X164300D01*
X164064Y96567D01*
X163864Y96700D01*
X163522Y97042D01*
X163105Y97322D01*
X162682Y97604D01*
X162588Y97643D01*
X162588Y97643D01*
X162588Y97643D01*
X162135Y97733D01*
X161597Y97840D01*
X161597Y97840D01*
X161597Y97840D01*
X158443D01*
X157452Y97643D01*
X157452Y97643D01*
X157452Y97643D01*
X157358Y97604D01*
X156935Y97322D01*
X156518Y97042D01*
X156176Y96700D01*
X155976Y96567D01*
X155740Y96520D01*
X152655D01*
X152430Y96565D01*
X152400Y96610D01*
Y112945D01*
X153670Y113285D01*
X154686Y111525D01*
X156555Y109656D01*
X158845Y108334D01*
X161398Y107650D01*
X164042D01*
X164290Y107717D01*
X165224Y106652D01*
X164640Y105242D01*
Y103038D01*
X165483Y101002D01*
X167042Y99443D01*
X169078Y98600D01*
X171282D01*
X173318Y99443D01*
X174877Y101002D01*
X175720Y103038D01*
Y105242D01*
X175249Y106380D01*
X176097Y107650D01*
X177547D01*
X178309Y106380D01*
X177908Y105410D01*
X187852D01*
X187451Y106380D01*
X188214Y107650D01*
X192760D01*
Y116420D01*
X182720D01*
Y117690D01*
X181450D01*
Y127730D01*
X172680D01*
Y123059D01*
X171410Y122718D01*
X170754Y123855D01*
X168885Y125724D01*
X166595Y127046D01*
X164042Y127730D01*
X161398D01*
X158845Y127046D01*
X156555Y125724D01*
X154686Y123855D01*
X153670Y122095D01*
X152400Y122435D01*
Y171450D01*
X147245D01*
X146993Y172720D01*
X147918Y173103D01*
X149477Y174662D01*
X150320Y176698D01*
Y178902D01*
X149477Y180938D01*
X147918Y182497D01*
X145882Y183340D01*
X143678D01*
X141642Y182497D01*
X140083Y180938D01*
X139240Y178902D01*
Y176698D01*
X140083Y174662D01*
X141642Y173103D01*
X142568Y172720D01*
X142315Y171450D01*
X139107D01*
X139088Y171454D01*
X139033Y171453D01*
X138684Y171487D01*
X138556Y171475D01*
X138430Y171500D01*
X120650D01*
Y195580D01*
X105410D01*
Y201840D01*
X106680Y202366D01*
X107612Y201433D01*
X109220Y200767D01*
Y205740D01*
Y210713D01*
X107612Y210047D01*
X106680Y209114D01*
X105410Y209640D01*
Y217170D01*
X78740D01*
X78643Y217073D01*
X77470Y217559D01*
Y261620D01*
X114300D01*
Y240030D01*
D02*
G37*
G36*
X242778Y238427D02*
X244356Y237773D01*
X245776Y236824D01*
X246380Y236219D01*
Y236219D01*
X247103Y235289D01*
X247157Y235208D01*
X247484Y234419D01*
X247504Y234319D01*
X247649Y233159D01*
Y233154D01*
X247649Y233154D01*
X247650Y233153D01*
X247650Y206266D01*
X247401Y205935D01*
X247071Y205178D01*
X246992Y204357D01*
X247169Y203551D01*
X247586Y202838D01*
X248203Y202289D01*
X248958Y201957D01*
X249780Y201875D01*
X250190Y201930D01*
X260879Y201930D01*
X261405Y200660D01*
X260733Y199988D01*
X259960Y198120D01*
X270900D01*
X270127Y199988D01*
X269455Y200660D01*
X269981Y201930D01*
X273050D01*
X274187Y201804D01*
X276191Y200701D01*
X277620Y198914D01*
X278243Y196764D01*
X278130Y195582D01*
X278130Y195580D01*
X278130Y195580D01*
X278130Y195580D01*
X278130Y178326D01*
X278042Y177685D01*
X277619Y176463D01*
X276965Y175347D01*
X276106Y174380D01*
X275590Y173990D01*
X230922D01*
X230068Y173990D01*
X228393Y174323D01*
X226814Y174977D01*
X225394Y175926D01*
X224790Y176530D01*
X224488Y176832D01*
X224014Y177542D01*
X223687Y178331D01*
X223520Y179169D01*
Y187960D01*
X223520Y196850D01*
X222259Y197993D01*
X219432Y199883D01*
X216291Y201184D01*
X212956Y201847D01*
X211256Y201930D01*
X211256Y201930D01*
X211256Y201930D01*
X199916D01*
X199489Y201930D01*
X198651Y202097D01*
X197862Y202423D01*
X197152Y202898D01*
X196850Y203200D01*
X196548Y203502D01*
X196073Y204212D01*
X195747Y205001D01*
X195580Y205839D01*
X195580Y236855D01*
X195788Y237206D01*
X196334Y237815D01*
X196987Y238305D01*
X197724Y238658D01*
X198120Y238759D01*
Y238759D01*
X240248Y238760D01*
X241102Y238760D01*
X242778Y238427D01*
D02*
G37*
G36*
X48260Y207010D02*
X86270Y207010D01*
X86796Y205740D01*
X85863Y204808D01*
X85197Y203200D01*
X90170D01*
Y201930D01*
X91440D01*
Y196957D01*
X93048Y197623D01*
X93980Y198556D01*
X95250Y198030D01*
Y196597D01*
X95057Y196131D01*
X94699Y195773D01*
X94233Y195580D01*
X85090D01*
X84842Y195556D01*
X84384Y195366D01*
X84034Y195016D01*
X83844Y194558D01*
X83820Y194310D01*
Y177800D01*
X83844Y177552D01*
X84034Y177094D01*
X84384Y176744D01*
X84842Y176554D01*
X85090Y176530D01*
X85688D01*
X86444Y175260D01*
X85852Y173832D01*
Y171609D01*
X86703Y169555D01*
X88275Y167983D01*
X90329Y167132D01*
X92551D01*
X94605Y167983D01*
X94983Y168360D01*
X96481Y168062D01*
X96903Y167042D01*
X98462Y165483D01*
X100498Y164640D01*
X102702D01*
X104738Y165483D01*
X106297Y167042D01*
X107140Y169078D01*
Y171282D01*
X106297Y173318D01*
X104738Y174877D01*
X103813Y175260D01*
X104065Y176530D01*
X109220D01*
X109220Y176530D01*
X109220Y176530D01*
X109220D01*
X110384Y176362D01*
X111378Y175950D01*
X112450Y174878D01*
X113030Y173478D01*
X113030Y172720D01*
X113103Y171977D01*
X113672Y170603D01*
X114723Y169552D01*
X116097Y168983D01*
X116840Y168910D01*
X138430D01*
X138430Y168910D01*
X138780Y168876D01*
X138822Y168880D01*
X138864Y168873D01*
X138926Y168861D01*
X139090Y168864D01*
X139107Y168860D01*
X142315D01*
X142554Y168908D01*
X143134Y168792D01*
X143692Y168561D01*
X144194Y168226D01*
X144408Y168012D01*
X144780Y167640D01*
X144780Y167640D01*
X145082Y167338D01*
X145557Y166628D01*
X145884Y165839D01*
X146050Y165001D01*
X146050Y164574D01*
X146050Y99586D01*
X146071Y99161D01*
X146237Y98327D01*
X146562Y97542D01*
X147034Y96835D01*
X147320Y96520D01*
X147692Y96148D01*
Y96148D01*
X147915Y95946D01*
X148415Y95612D01*
X148970Y95382D01*
X149559Y95265D01*
X149860Y95250D01*
X150214D01*
X150247Y95171D01*
X150276Y95126D01*
X150277Y95126D01*
X150457Y94946D01*
X150569Y94778D01*
X150736Y94667D01*
X150991Y94411D01*
X151324Y94273D01*
X151409Y94217D01*
X151509Y94197D01*
X151643Y94142D01*
X151664Y94127D01*
X151689Y94122D01*
X151925Y94025D01*
X152150Y93980D01*
X152405D01*
X152655Y93930D01*
X155740D01*
X155990Y93980D01*
X156246Y93980D01*
X156481Y94027D01*
X156717Y94124D01*
X156731Y94127D01*
X156744Y94136D01*
X157152Y94305D01*
X157167Y94308D01*
X157179Y94316D01*
X157415Y94413D01*
X157614Y94547D01*
X157795Y94727D01*
X158007Y94869D01*
X158168Y95031D01*
X158411Y95193D01*
X158698Y95250D01*
X161342D01*
X161629Y95193D01*
X161666Y95168D01*
X161666Y95168D01*
X161871Y95031D01*
X162033Y94869D01*
X162245Y94727D01*
X162426Y94547D01*
X162625Y94414D01*
X162625Y94413D01*
X162861Y94316D01*
X162873Y94308D01*
X162888Y94305D01*
X163296Y94136D01*
X163309Y94127D01*
X163323Y94124D01*
X163559Y94027D01*
X163795Y93980D01*
X164050D01*
X164300Y93930D01*
X170980D01*
X171230Y93980D01*
X171486Y93980D01*
X171721Y94027D01*
X171957Y94124D01*
X171971Y94127D01*
X171984Y94136D01*
X172392Y94305D01*
X172407Y94308D01*
X172419Y94316D01*
X172654Y94413D01*
X172854Y94547D01*
X173035Y94727D01*
X173247Y94869D01*
X173409Y95031D01*
X173651Y95193D01*
X173938Y95250D01*
X176582D01*
X176869Y95193D01*
X176906Y95168D01*
X176906Y95168D01*
X177111Y95031D01*
X177273Y94869D01*
X177485Y94727D01*
X177666Y94547D01*
X177865Y94414D01*
X177865Y94413D01*
X178101Y94316D01*
X178113Y94308D01*
X178128Y94305D01*
X178536Y94136D01*
X178549Y94127D01*
X178563Y94124D01*
X178799Y94027D01*
X179035Y93980D01*
X179290D01*
X179540Y93930D01*
X199135D01*
X199385Y93980D01*
X199640Y93980D01*
X199876Y94027D01*
X200112Y94124D01*
X200126Y94127D01*
X200138Y94136D01*
X200154Y94142D01*
X200381Y94187D01*
X200574Y94316D01*
X200809Y94413D01*
X200809Y94413D01*
X201489Y94159D01*
X201930Y93980D01*
X201930Y93980D01*
X202674D01*
Y93980D01*
X202674Y93980D01*
X203108Y93940D01*
X203974Y94040D01*
X204778Y94374D01*
X205461Y94914D01*
X205740Y95250D01*
X206248Y118618D01*
X208652Y121022D01*
X208652Y121022D01*
X208652Y121022D01*
X208653Y121023D01*
X209633Y121681D01*
X209925Y121802D01*
X210518Y121920D01*
X210820Y121920D01*
X216780Y121920D01*
X217553Y120052D01*
X219112Y118493D01*
X221148Y117650D01*
X223352D01*
X223469Y117698D01*
X224311Y117344D01*
X224790Y116871D01*
X224790Y93236D01*
X224790Y93236D01*
X224790Y92809D01*
X224623Y91971D01*
X224296Y91182D01*
X223822Y90472D01*
X223520Y90170D01*
X223520Y90170D01*
X223218Y89868D01*
X222508Y89394D01*
X221719Y89067D01*
X220881Y88900D01*
X148288D01*
X147696Y89018D01*
X147138Y89249D01*
X146636Y89585D01*
X143510Y92710D01*
X143510D01*
X143208Y93012D01*
X142733Y93722D01*
X142407Y94511D01*
X142240Y95349D01*
Y151459D01*
X142240Y151459D01*
X142240Y151459D01*
X142239Y151464D01*
X142215Y151966D01*
X142017Y152962D01*
X141629Y153899D01*
X141065Y154743D01*
X140724Y155119D01*
X140569Y154794D01*
X140091Y154255D01*
X139482Y153870D01*
X138790Y153670D01*
X85090D01*
X84099Y153572D01*
X82268Y152814D01*
X80866Y151412D01*
X80108Y149581D01*
X80010Y148590D01*
Y130810D01*
X80010Y130810D01*
X80010Y129547D01*
X79043Y127213D01*
X77257Y125427D01*
X74923Y124460D01*
X73660Y124460D01*
X49530D01*
X48780Y124460D01*
X47307Y124753D01*
X45921Y125327D01*
X44672Y126161D01*
X43611Y127222D01*
X42777Y128470D01*
X42203Y129857D01*
X41910Y131329D01*
X41910Y132080D01*
Y200660D01*
X41910Y201923D01*
X42877Y204257D01*
X44663Y206043D01*
X46997Y207010D01*
X48260Y207010D01*
D02*
G37*
%LPC*%
G36*
X29340Y476380D02*
X20320D01*
Y467360D01*
X29340D01*
Y476380D01*
D02*
G37*
G36*
X17780D02*
X8760D01*
Y467360D01*
X17780D01*
Y476380D01*
D02*
G37*
G36*
X67310Y460182D02*
Y455930D01*
X71562D01*
X70777Y457825D01*
X69205Y459397D01*
X67310Y460182D01*
D02*
G37*
G36*
X64770D02*
X62875Y459397D01*
X61303Y457825D01*
X60518Y455930D01*
X64770D01*
Y460182D01*
D02*
G37*
G36*
X29340Y464820D02*
X20320D01*
Y455800D01*
X29340D01*
Y464820D01*
D02*
G37*
G36*
X17780D02*
X8760D01*
Y455800D01*
X17780D01*
Y464820D01*
D02*
G37*
G36*
X71562Y453390D02*
X67310D01*
Y449138D01*
X69205Y449923D01*
X70777Y451495D01*
X71562Y453390D01*
D02*
G37*
G36*
X64770D02*
X60518D01*
X61303Y451495D01*
X62875Y449923D01*
X64770Y449138D01*
Y453390D01*
D02*
G37*
G36*
X20405Y450980D02*
X17695D01*
X15078Y450279D01*
X12732Y448924D01*
X10816Y447008D01*
X9461Y444662D01*
X8760Y442045D01*
Y439335D01*
X9461Y436718D01*
X10816Y434372D01*
X12732Y432456D01*
X15078Y431101D01*
X17695Y430400D01*
X20405D01*
X23022Y431101D01*
X25368Y432456D01*
X27284Y434372D01*
X28639Y436718D01*
X29340Y439335D01*
Y442045D01*
X28639Y444662D01*
X27284Y447008D01*
X25368Y448924D01*
X23022Y450279D01*
X20405Y450980D01*
D02*
G37*
G36*
X270510Y421533D02*
X268902Y420867D01*
X267473Y419438D01*
X266807Y417830D01*
X270510D01*
Y421533D01*
D02*
G37*
G36*
Y415290D02*
X266807D01*
X267473Y413682D01*
X268902Y412253D01*
X270510Y411587D01*
Y415290D01*
D02*
G37*
G36*
X57961Y416306D02*
X55738D01*
X53684Y415455D01*
X52112Y413883D01*
X51261Y411829D01*
Y409607D01*
X52112Y407553D01*
X53684Y405981D01*
X55738Y405130D01*
X57961D01*
X60015Y405981D01*
X61587Y407553D01*
X62437Y409607D01*
Y411829D01*
X61587Y413883D01*
X60015Y415455D01*
X57961Y416306D01*
D02*
G37*
G36*
X20405Y425580D02*
X17695D01*
X15078Y424879D01*
X12732Y423524D01*
X10816Y421608D01*
X9461Y419262D01*
X8760Y416645D01*
Y413935D01*
X9461Y411318D01*
X10816Y408972D01*
X12732Y407056D01*
X15078Y405701D01*
X17695Y405000D01*
X20405D01*
X23022Y405701D01*
X25368Y407056D01*
X27284Y408972D01*
X28639Y411318D01*
X29340Y413935D01*
Y416645D01*
X28639Y419262D01*
X27284Y421608D01*
X25368Y423524D01*
X23022Y424879D01*
X20405Y425580D01*
D02*
G37*
G36*
X62071Y401828D02*
X59848D01*
X57795Y400977D01*
X56223Y399405D01*
X55372Y397351D01*
Y395129D01*
X56223Y393075D01*
X57795Y391503D01*
X59848Y390652D01*
X62071D01*
X64125Y391503D01*
X65697Y393075D01*
X66548Y395129D01*
Y397351D01*
X65697Y399405D01*
X64125Y400977D01*
X62071Y401828D01*
D02*
G37*
G36*
X20405Y400180D02*
X17695D01*
X15078Y399479D01*
X12732Y398124D01*
X10816Y396208D01*
X9461Y393862D01*
X8760Y391245D01*
Y388535D01*
X9461Y385918D01*
X10816Y383572D01*
X12732Y381656D01*
X15078Y380301D01*
X17695Y379600D01*
X20405D01*
X23022Y380301D01*
X25368Y381656D01*
X27284Y383572D01*
X28639Y385918D01*
X29340Y388535D01*
Y391245D01*
X28980Y392589D01*
X29134Y393371D01*
X29585Y393524D01*
X30220Y393150D01*
X30658Y392092D01*
X32087Y390663D01*
X33954Y389890D01*
X35975D01*
X37842Y390663D01*
X39271Y392092D01*
X40045Y393960D01*
Y395980D01*
X39271Y397848D01*
X37842Y399277D01*
X35975Y400050D01*
X33954D01*
X32087Y399277D01*
X30658Y397848D01*
X29885Y395980D01*
X29885Y394705D01*
X28657Y393858D01*
X28639Y393862D01*
X28326Y394403D01*
X27284Y396208D01*
X25368Y398124D01*
X23022Y399479D01*
X20405Y400180D01*
D02*
G37*
G36*
X262890Y388512D02*
Y384810D01*
X266593D01*
X265927Y386418D01*
X264498Y387847D01*
X262890Y388512D01*
D02*
G37*
G36*
X260350D02*
X258742Y387847D01*
X257313Y386418D01*
X256647Y384810D01*
X260350D01*
Y388512D01*
D02*
G37*
G36*
X266593Y382270D02*
X262890D01*
Y378568D01*
X264498Y379233D01*
X265927Y380662D01*
X266593Y382270D01*
D02*
G37*
G36*
X260350D02*
X256647D01*
X257313Y380662D01*
X258742Y379233D01*
X260350Y378568D01*
Y382270D01*
D02*
G37*
G36*
X148432Y363728D02*
X146208D01*
X144155Y362877D01*
X142583Y361305D01*
X141732Y359252D01*
Y357029D01*
X142583Y354975D01*
X144155Y353403D01*
X146208Y352552D01*
X148432D01*
X150485Y353403D01*
X152057Y354975D01*
X152908Y357029D01*
Y359252D01*
X152057Y361305D01*
X150485Y362877D01*
X148432Y363728D01*
D02*
G37*
G36*
X164942Y362458D02*
X162719D01*
X160665Y361607D01*
X159093Y360035D01*
X158242Y357981D01*
Y355759D01*
X159093Y353705D01*
X160665Y352133D01*
X162719Y351282D01*
X164942D01*
X166995Y352133D01*
X168567Y353705D01*
X169418Y355759D01*
Y357981D01*
X168567Y360035D01*
X166995Y361607D01*
X164942Y362458D01*
D02*
G37*
G36*
X187792Y352250D02*
X185588D01*
X183552Y351407D01*
X181993Y349848D01*
X181150Y347812D01*
Y347774D01*
X179977Y347288D01*
X179668Y347597D01*
X177632Y348440D01*
X175428D01*
X173392Y347597D01*
X171833Y346038D01*
X170990Y344002D01*
Y341798D01*
X171833Y339762D01*
X173392Y338203D01*
X175428Y337360D01*
X177632D01*
X179668Y338203D01*
X181227Y339762D01*
X182070Y341798D01*
Y341836D01*
X183243Y342322D01*
X183552Y342013D01*
X185588Y341170D01*
X187792D01*
X189828Y342013D01*
X191387Y343572D01*
X192230Y345608D01*
Y347812D01*
X191387Y349848D01*
X189828Y351407D01*
X187792Y352250D01*
D02*
G37*
G36*
X162560Y349142D02*
Y345440D01*
X166262D01*
X165597Y347048D01*
X164168Y348477D01*
X162560Y349142D01*
D02*
G37*
G36*
X160020D02*
X158412Y348477D01*
X156983Y347048D01*
X156318Y345440D01*
X160020D01*
Y349142D01*
D02*
G37*
G36*
X87371Y350520D02*
X85350D01*
X83482Y349747D01*
X82053Y348318D01*
X81280Y346451D01*
Y344430D01*
X82053Y342562D01*
X83482Y341133D01*
X85350Y340360D01*
X87371D01*
X89238Y341133D01*
X90667Y342562D01*
X91440Y344430D01*
Y346451D01*
X90667Y348318D01*
X89238Y349747D01*
X87371Y350520D01*
D02*
G37*
G36*
X166262Y342900D02*
X162560D01*
Y339198D01*
X164168Y339863D01*
X165597Y341292D01*
X166262Y342900D01*
D02*
G37*
G36*
X160020D02*
X156318D01*
X156983Y341292D01*
X158412Y339863D01*
X160020Y339198D01*
Y342900D01*
D02*
G37*
G36*
X107950Y253892D02*
Y250190D01*
X111652D01*
X110987Y251798D01*
X109558Y253227D01*
X107950Y253892D01*
D02*
G37*
G36*
X105410D02*
X103802Y253227D01*
X102373Y251798D01*
X101707Y250190D01*
X105410D01*
Y253892D01*
D02*
G37*
G36*
X111652Y247650D02*
X107950D01*
Y243948D01*
X109558Y244613D01*
X110987Y246042D01*
X111652Y247650D01*
D02*
G37*
G36*
X105410D02*
X101707D01*
X102373Y246042D01*
X103802Y244613D01*
X105410Y243948D01*
Y247650D01*
D02*
G37*
G36*
X116840Y234842D02*
Y231140D01*
X120542D01*
X119877Y232748D01*
X118448Y234177D01*
X116840Y234842D01*
D02*
G37*
G36*
X114300D02*
X112692Y234177D01*
X111263Y232748D01*
X110597Y231140D01*
X114300D01*
Y234842D01*
D02*
G37*
G36*
X120542Y228600D02*
X116840D01*
Y224897D01*
X118448Y225563D01*
X119877Y226992D01*
X120542Y228600D01*
D02*
G37*
G36*
X114300D02*
X110597D01*
X111263Y226992D01*
X112692Y225563D01*
X114300Y224897D01*
Y228600D01*
D02*
G37*
G36*
X111760Y210713D02*
Y207010D01*
X115463D01*
X114797Y208618D01*
X113368Y210047D01*
X111760Y210713D01*
D02*
G37*
G36*
X115463Y204470D02*
X111760D01*
Y200767D01*
X113368Y201433D01*
X114797Y202862D01*
X115463Y204470D01*
D02*
G37*
G36*
X143510Y195473D02*
Y191770D01*
X147212D01*
X146547Y193378D01*
X145118Y194807D01*
X143510Y195473D01*
D02*
G37*
G36*
X140970D02*
X139362Y194807D01*
X137933Y193378D01*
X137268Y191770D01*
X140970D01*
Y195473D01*
D02*
G37*
G36*
X147212Y189230D02*
X143510D01*
Y185527D01*
X145118Y186193D01*
X146547Y187622D01*
X147212Y189230D01*
D02*
G37*
G36*
X140970D02*
X137268D01*
X137933Y187622D01*
X139362Y186193D01*
X140970Y185527D01*
Y189230D01*
D02*
G37*
G36*
X186690Y184042D02*
Y180340D01*
X190392D01*
X189727Y181948D01*
X188298Y183377D01*
X186690Y184042D01*
D02*
G37*
G36*
X184150D02*
X182542Y183377D01*
X181113Y181948D01*
X180448Y180340D01*
X184150D01*
Y184042D01*
D02*
G37*
G36*
X190392Y177800D02*
X186690D01*
Y174097D01*
X188298Y174763D01*
X189727Y176192D01*
X190392Y177800D01*
D02*
G37*
G36*
X184150D02*
X180448D01*
X181113Y176192D01*
X182542Y174763D01*
X184150Y174097D01*
Y177800D01*
D02*
G37*
G36*
X199222Y180800D02*
X197018D01*
X194982Y179957D01*
X193423Y178398D01*
X192580Y176362D01*
Y174158D01*
X193423Y172122D01*
X194982Y170563D01*
X197018Y169720D01*
X199222D01*
X201258Y170563D01*
X202817Y172122D01*
X203660Y174158D01*
Y176362D01*
X202817Y178398D01*
X201258Y179957D01*
X199222Y180800D01*
D02*
G37*
G36*
X161122Y174450D02*
X158918D01*
X156882Y173607D01*
X155323Y172048D01*
X154480Y170012D01*
Y167808D01*
X155323Y165772D01*
X156882Y164213D01*
X158918Y163370D01*
X161122D01*
X163158Y164213D01*
X164717Y165772D01*
X165560Y167808D01*
Y170012D01*
X164717Y172048D01*
X163158Y173607D01*
X161122Y174450D01*
D02*
G37*
G36*
X214630Y159913D02*
Y156210D01*
X218333D01*
X217667Y157818D01*
X216238Y159247D01*
X214630Y159913D01*
D02*
G37*
G36*
X212090D02*
X210482Y159247D01*
X209053Y157818D01*
X208388Y156210D01*
X212090D01*
Y159913D01*
D02*
G37*
G36*
X218333Y153670D02*
X214630D01*
Y149967D01*
X216238Y150633D01*
X217667Y152062D01*
X218333Y153670D01*
D02*
G37*
G36*
X212090D02*
X208388D01*
X209053Y152062D01*
X210482Y150633D01*
X212090Y149967D01*
Y153670D01*
D02*
G37*
G36*
X192760Y127730D02*
X183990D01*
Y118960D01*
X192760D01*
Y127730D01*
D02*
G37*
G36*
X187852Y102870D02*
X184150D01*
Y99167D01*
X185758Y99833D01*
X187187Y101262D01*
X187852Y102870D01*
D02*
G37*
G36*
X181610D02*
X177908D01*
X178573Y101262D01*
X180002Y99833D01*
X181610Y99167D01*
Y102870D01*
D02*
G37*
G36*
X219710Y230260D02*
Y226060D01*
X223910D01*
X223137Y227928D01*
X221578Y229487D01*
X219710Y230260D01*
D02*
G37*
G36*
X217170D02*
X215302Y229487D01*
X213743Y227928D01*
X212970Y226060D01*
X217170D01*
Y230260D01*
D02*
G37*
G36*
X223910Y223520D02*
X219710D01*
Y219320D01*
X221578Y220093D01*
X223137Y221652D01*
X223910Y223520D01*
D02*
G37*
G36*
X217170D02*
X212970D01*
X213743Y221652D01*
X215302Y220093D01*
X217170Y219320D01*
Y223520D01*
D02*
G37*
G36*
X234950Y202320D02*
Y198120D01*
X239150D01*
X238377Y199988D01*
X236818Y201547D01*
X234950Y202320D01*
D02*
G37*
G36*
X232410D02*
X230542Y201547D01*
X228983Y199988D01*
X228210Y198120D01*
X232410D01*
Y202320D01*
D02*
G37*
G36*
X270900Y195580D02*
X266700D01*
Y191380D01*
X268568Y192153D01*
X270127Y193712D01*
X270900Y195580D01*
D02*
G37*
G36*
X264160D02*
X259960D01*
X260733Y193712D01*
X262292Y192153D01*
X264160Y191380D01*
Y195580D01*
D02*
G37*
G36*
X239150D02*
X234950D01*
Y191380D01*
X236818Y192153D01*
X238377Y193712D01*
X239150Y195580D01*
D02*
G37*
G36*
X232410D02*
X228210D01*
X228983Y193712D01*
X230542Y192153D01*
X232410Y191380D01*
Y195580D01*
D02*
G37*
G36*
X54610Y202372D02*
Y198120D01*
X58862D01*
X58077Y200015D01*
X56505Y201587D01*
X54610Y202372D01*
D02*
G37*
G36*
X52070D02*
X50175Y201587D01*
X48603Y200015D01*
X47818Y198120D01*
X52070D01*
Y202372D01*
D02*
G37*
G36*
X88900Y200660D02*
X85197D01*
X85863Y199052D01*
X87292Y197623D01*
X88900Y196957D01*
Y200660D01*
D02*
G37*
G36*
X58862Y195580D02*
X54610D01*
Y191328D01*
X56505Y192113D01*
X58077Y193685D01*
X58862Y195580D01*
D02*
G37*
G36*
X52070D02*
X47818D01*
X48603Y193685D01*
X50175Y192113D01*
X52070Y191328D01*
Y195580D01*
D02*
G37*
G36*
X120650Y164993D02*
Y161290D01*
X124353D01*
X123687Y162898D01*
X122258Y164327D01*
X120650Y164993D01*
D02*
G37*
G36*
X118110D02*
X116502Y164327D01*
X115073Y162898D01*
X114408Y161290D01*
X118110D01*
Y164993D01*
D02*
G37*
G36*
X55712Y188420D02*
X53508D01*
X51472Y187577D01*
X49913Y186018D01*
X49070Y183982D01*
Y181778D01*
X49913Y179742D01*
X51472Y178183D01*
X53508Y177340D01*
X55690D01*
X55752Y177275D01*
X56393Y176248D01*
X55197Y175051D01*
X54346Y172997D01*
Y170774D01*
X55197Y168720D01*
X56769Y167148D01*
X58823Y166298D01*
X61046D01*
X61705Y166571D01*
X62279Y166019D01*
X62551Y165546D01*
X61770Y163662D01*
Y161458D01*
X62613Y159422D01*
X64172Y157863D01*
X66208Y157020D01*
X68412D01*
X70448Y157863D01*
X72007Y159422D01*
X72850Y161458D01*
Y163662D01*
X72007Y165698D01*
X70448Y167257D01*
X68412Y168100D01*
X66208D01*
X65576Y167838D01*
X64980Y168419D01*
X64730Y168863D01*
X65522Y170774D01*
Y172997D01*
X64672Y175051D01*
X63100Y176623D01*
X61046Y177474D01*
X58835D01*
X58800Y177509D01*
X58124Y178559D01*
X59307Y179742D01*
X60150Y181778D01*
Y183982D01*
X59307Y186018D01*
X57748Y187577D01*
X55712Y188420D01*
D02*
G37*
G36*
X124353Y158750D02*
X120650D01*
Y155048D01*
X122258Y155713D01*
X123687Y157142D01*
X124353Y158750D01*
D02*
G37*
G36*
X118110D02*
X114408D01*
X115073Y157142D01*
X116502Y155713D01*
X118110Y155048D01*
Y158750D01*
D02*
G37*
G36*
X75270Y148780D02*
X63500D01*
Y140010D01*
X75270D01*
Y148780D01*
D02*
G37*
G36*
X60960D02*
X49190D01*
Y140010D01*
X60960D01*
Y148780D01*
D02*
G37*
G36*
X75270Y137470D02*
X63500D01*
Y128700D01*
X75270D01*
Y137470D01*
D02*
G37*
G36*
X60960D02*
X49190D01*
Y128700D01*
X60960D01*
Y137470D01*
D02*
G37*
G36*
X218440Y103312D02*
Y99060D01*
X222692D01*
X221907Y100955D01*
X220335Y102527D01*
X218440Y103312D01*
D02*
G37*
G36*
X215900D02*
X214005Y102527D01*
X212433Y100955D01*
X211648Y99060D01*
X215900D01*
Y103312D01*
D02*
G37*
G36*
X222692Y96520D02*
X218440D01*
Y92268D01*
X220335Y93053D01*
X221907Y94625D01*
X222692Y96520D01*
D02*
G37*
G36*
X215900D02*
X211648D01*
X212433Y94625D01*
X214005Y93053D01*
X215900Y92268D01*
Y96520D01*
D02*
G37*
%LPD*%
D57*
X183190Y66690D02*
D03*
X240990D02*
D03*
D59*
X157895Y449710D02*
D03*
Y429960D02*
D03*
Y410210D02*
D03*
X138145Y449710D02*
D03*
Y429960D02*
D03*
Y410210D02*
D03*
X167770Y420085D02*
D03*
X148020D02*
D03*
X128270D02*
D03*
X167770Y439835D02*
D03*
X148020D02*
D03*
X128270D02*
D03*
X170180Y104140D02*
D03*
X160020Y168910D02*
D03*
X274320Y447040D02*
D03*
X226060Y262890D02*
D03*
X198120Y175260D02*
D03*
X189230Y203200D02*
D03*
X245110Y92710D02*
D03*
X222250Y123190D02*
D03*
X215900Y142240D02*
D03*
X186690Y346710D02*
D03*
X176530Y342900D02*
D03*
X177800Y257810D02*
D03*
X144780Y177800D02*
D03*
X140970Y323850D02*
D03*
X130810Y134620D02*
D03*
X101600Y170180D02*
D03*
X71120Y273050D02*
D03*
Y326390D02*
D03*
X91440Y107950D02*
D03*
X82550Y78740D02*
D03*
X54610Y182880D02*
D03*
X67310Y162560D02*
D03*
X265430Y196850D02*
D03*
X233680D02*
D03*
X218440Y224790D02*
D03*
D64*
X162720Y117690D02*
D03*
D65*
X109230Y108740D02*
D03*
D66*
X19050Y389890D02*
D03*
Y328930D02*
D03*
Y303530D02*
D03*
Y278130D02*
D03*
Y252730D02*
D03*
Y227330D02*
D03*
Y415290D02*
D03*
Y440690D02*
D03*
D67*
X62230Y78740D02*
D03*
Y138740D02*
D03*
D68*
X182720Y117690D02*
D03*
D69*
X19050Y354330D02*
D03*
Y466090D02*
D03*
D70*
X56849Y410718D02*
D03*
X72390Y383540D02*
D03*
X224238Y374650D02*
D03*
X256540Y311150D02*
D03*
X224238Y328930D02*
D03*
X217170Y97790D02*
D03*
X91440Y172720D02*
D03*
X59934Y171886D02*
D03*
X265430Y152400D02*
D03*
X240030D02*
D03*
X180340Y360680D02*
D03*
X163830Y356870D02*
D03*
X147320Y358140D02*
D03*
X129540Y359410D02*
D03*
X60960Y396240D02*
D03*
X225203Y409033D02*
D03*
X223520Y424180D02*
D03*
X53340Y196850D02*
D03*
X66040Y454660D02*
D03*
D71*
X215900Y380492D02*
D03*
X194056Y391668D02*
D03*
X196850Y468630D02*
D03*
X90170Y201930D02*
D03*
X119380Y160020D02*
D03*
X278130Y29210D02*
D03*
Y72390D02*
D03*
X146050Y30480D02*
D03*
Y71120D02*
D03*
X185420Y179070D02*
D03*
X186690Y469900D02*
D03*
X193040Y454660D02*
D03*
X181610D02*
D03*
X194310Y443230D02*
D03*
Y420370D02*
D03*
X193040Y431800D02*
D03*
Y408940D02*
D03*
X182880Y443230D02*
D03*
X180340Y431800D02*
D03*
X181610Y420370D02*
D03*
Y408940D02*
D03*
X175260Y469900D02*
D03*
X163830D02*
D03*
X152400D02*
D03*
X176530Y391160D02*
D03*
X165100Y392430D02*
D03*
X153670D02*
D03*
X186690Y398780D02*
D03*
X140970Y469900D02*
D03*
X129540D02*
D03*
X119380D02*
D03*
X114300Y454660D02*
D03*
X109220Y469900D02*
D03*
X114300Y431800D02*
D03*
X111760Y443230D02*
D03*
X114300Y400050D02*
D03*
X109220Y420370D02*
D03*
X104140Y454660D02*
D03*
X97790Y469900D02*
D03*
X102870Y431800D02*
D03*
Y400050D02*
D03*
X104140Y411480D02*
D03*
X99060Y420370D02*
D03*
X101600Y443230D02*
D03*
X34965Y394970D02*
D03*
X130810Y392430D02*
D03*
X119380Y389890D02*
D03*
X142240Y392430D02*
D03*
X98298Y392176D02*
D03*
X86360Y345440D02*
D03*
X213360Y154940D02*
D03*
X182880Y104140D02*
D03*
X115570Y229870D02*
D03*
X106680Y248920D02*
D03*
X142240Y190500D02*
D03*
X110490Y205740D02*
D03*
X161290Y344170D02*
D03*
X261620Y383540D02*
D03*
X271780Y416560D02*
D03*
M02*
