G04*
G04 #@! TF.GenerationSoftware,Altium Limited,Altium Designer,25.8.1 (18)*
G04*
G04 Layer_Color=65535*
%FSLAX44Y44*%
%MOMM*%
G71*
G04*
G04 #@! TF.SameCoordinates,F1196714-0DB9-464D-985B-113CB06F2960*
G04*
G04*
G04 #@! TF.FilePolarity,Positive*
G04*
G01*
G75*
%ADD10C,0.2500*%
%ADD11C,0.1000*%
%ADD12C,0.1270*%
%ADD13C,0.2000*%
%ADD14C,0.2540*%
D10*
X76520Y469960D02*
G03*
X76520Y469960I-1250J0D01*
G01*
X201489Y185010D02*
G03*
X201489Y185010I-1250J0D01*
G01*
X212750Y99050D02*
G03*
X212750Y99050I-500J0D01*
G01*
X121390Y340490D02*
G03*
X121390Y340490I-1250J0D01*
G01*
X211050Y341340D02*
G03*
X211050Y341340I-1250J0D01*
G01*
X63480Y151740D02*
G03*
X63480Y151740I-1250J0D01*
G01*
X181328Y89290D02*
G03*
X181328Y89290I-1250J0D01*
G01*
X206770Y248920D02*
G03*
X206770Y248920I-1250J0D01*
G01*
X36810Y173770D02*
G03*
X36810Y173770I-1250J0D01*
G01*
X163560Y182330D02*
G03*
X163560Y182330I-1250J0D01*
G01*
D11*
X86330Y199730D02*
G03*
X86330Y199730I-500J0D01*
G01*
D12*
X81270Y486710D02*
Y540710D01*
X214770Y486710D02*
Y540710D01*
X81270D02*
X214770D01*
D13*
X222999Y189760D02*
X224041D01*
X222999Y160760D02*
Y189760D01*
Y160760D02*
X224041D01*
Y189760D01*
X126640Y286240D02*
Y315740D01*
X96890Y278490D02*
X111390D01*
X81640Y286240D02*
Y315740D01*
X96890Y323490D02*
X111390D01*
X216300Y287090D02*
Y316590D01*
X186550Y279340D02*
X201050D01*
X171300Y287090D02*
Y316590D01*
X186550Y324340D02*
X201050D01*
X225048Y213888D02*
Y230612D01*
X239772Y213888D02*
Y230612D01*
X75989Y169310D02*
X89111D01*
X75989Y155810D02*
X89111D01*
X141141Y224229D02*
Y253291D01*
X123019Y224229D02*
Y253291D01*
X275261Y161929D02*
Y186051D01*
X258139Y161929D02*
Y186051D01*
X81109Y225499D02*
Y254561D01*
X99231Y225499D02*
Y254561D01*
X269790Y335516D02*
Y362984D01*
X243290Y335516D02*
Y362984D01*
X6350Y212730D02*
X31750D01*
X6350D02*
Y368930D01*
X31750D01*
Y212730D02*
Y368930D01*
Y375290D02*
Y480690D01*
X6350D02*
X31750D01*
X6350Y375290D02*
Y480690D01*
Y375290D02*
X31750D01*
X76730Y145740D02*
X107230D01*
Y123240D02*
Y145740D01*
Y1740D02*
Y94240D01*
X17230Y145740D02*
X47730D01*
X17230Y1740D02*
X107230D01*
X17230D02*
Y145740D01*
X257790Y2390D02*
Y18640D01*
Y46140D02*
Y57940D01*
X166390Y2390D02*
X257790D01*
X166390D02*
Y18640D01*
Y46140D02*
Y57940D01*
X143220Y100690D02*
X202220D01*
Y145690D01*
X143220Y100690D02*
Y145690D01*
X202220D01*
X223020Y253420D02*
X224020D01*
X223020Y244420D02*
X224020D01*
X31060Y191270D02*
Y192270D01*
X40060Y191270D02*
Y192270D01*
X184319Y230011D02*
X209381D01*
X184319Y211949D02*
X209381D01*
X83078Y365502D02*
X99802D01*
X83078Y350778D02*
X99802D01*
X260991Y428313D02*
Y435287D01*
X241929Y428313D02*
Y435287D01*
X136712Y347722D02*
X153437D01*
X136712Y332998D02*
X153437D01*
X194543Y361692D02*
X211268D01*
X194543Y346968D02*
X211268D01*
D14*
X178605Y158410D02*
X177124Y159892D01*
X174161D01*
X172680Y158410D01*
Y152486D01*
X174161Y151004D01*
X177124D01*
X178605Y152486D01*
X187492Y159892D02*
X184530Y158410D01*
X181567Y155448D01*
Y152486D01*
X183048Y151004D01*
X186011D01*
X187492Y152486D01*
Y153967D01*
X186011Y155448D01*
X181567D01*
X36830Y231138D02*
X39369D01*
X38100D01*
Y223520D01*
X36830D01*
X39369D01*
X46987Y231138D02*
X44447D01*
X43178Y229868D01*
Y224790D01*
X44447Y223520D01*
X46987D01*
X48256Y224790D01*
Y229868D01*
X46987Y231138D01*
X55874D02*
X50795D01*
Y227329D01*
X53335Y228598D01*
X54604D01*
X55874Y227329D01*
Y224790D01*
X54604Y223520D01*
X52065D01*
X50795Y224790D01*
X36830Y257808D02*
X39369D01*
X38100D01*
Y250190D01*
X36830D01*
X39369D01*
X46987Y257808D02*
X44447D01*
X43178Y256538D01*
Y251460D01*
X44447Y250190D01*
X46987D01*
X48256Y251460D01*
Y256538D01*
X46987Y257808D01*
X54604Y250190D02*
Y257808D01*
X50795Y253999D01*
X55874D01*
X36830Y283207D02*
X39369D01*
X38100D01*
Y275590D01*
X36830D01*
X39369D01*
X46987Y283207D02*
X44447D01*
X43178Y281938D01*
Y276860D01*
X44447Y275590D01*
X46987D01*
X48256Y276860D01*
Y281938D01*
X46987Y283207D01*
X50795Y281938D02*
X52065Y283207D01*
X54604D01*
X55874Y281938D01*
Y280668D01*
X54604Y279399D01*
X53335D01*
X54604D01*
X55874Y278129D01*
Y276860D01*
X54604Y275590D01*
X52065D01*
X50795Y276860D01*
X36830Y308608D02*
X39369D01*
X38100D01*
Y300990D01*
X36830D01*
X39369D01*
X46987Y308608D02*
X44447D01*
X43178Y307338D01*
Y302260D01*
X44447Y300990D01*
X46987D01*
X48256Y302260D01*
Y307338D01*
X46987Y308608D01*
X55874Y300990D02*
X50795D01*
X55874Y306068D01*
Y307338D01*
X54604Y308608D01*
X52065D01*
X50795Y307338D01*
X36830Y332738D02*
X39369D01*
X38100D01*
Y325120D01*
X36830D01*
X39369D01*
X46987Y332738D02*
X44447D01*
X43178Y331468D01*
Y326390D01*
X44447Y325120D01*
X46987D01*
X48256Y326390D01*
Y331468D01*
X46987Y332738D01*
X50795Y325120D02*
X53335D01*
X52065D01*
Y332738D01*
X50795Y331468D01*
X36830Y358138D02*
X39369D01*
X38100D01*
Y350520D01*
X36830D01*
X39369D01*
X46987Y358138D02*
X44447D01*
X43178Y356868D01*
Y351790D01*
X44447Y350520D01*
X46987D01*
X48256Y351790D01*
Y356868D01*
X46987Y358138D01*
X50795Y356868D02*
X52065Y358138D01*
X54604D01*
X55874Y356868D01*
Y351790D01*
X54604Y350520D01*
X52065D01*
X50795Y351790D01*
Y356868D01*
X41908Y389888D02*
X40639Y391157D01*
X38100D01*
X36830Y389888D01*
Y384810D01*
X38100Y383540D01*
X40639D01*
X41908Y384810D01*
Y387349D01*
X39369D01*
X44447Y383540D02*
Y391157D01*
X49526Y383540D01*
Y391157D01*
X52065D02*
Y383540D01*
X55874D01*
X57143Y384810D01*
Y389888D01*
X55874Y391157D01*
X52065D01*
X36830Y466088D02*
X38100Y467357D01*
X40639D01*
X41908Y466088D01*
Y464818D01*
X40639Y463549D01*
X39369D01*
X40639D01*
X41908Y462279D01*
Y461010D01*
X40639Y459740D01*
X38100D01*
X36830Y461010D01*
X44447Y467357D02*
Y462279D01*
X46987Y459740D01*
X49526Y462279D01*
Y467357D01*
X52065Y466088D02*
X53335Y467357D01*
X55874D01*
X57143Y466088D01*
Y464818D01*
X55874Y463549D01*
X54604D01*
X55874D01*
X57143Y462279D01*
Y461010D01*
X55874Y459740D01*
X53335D01*
X52065Y461010D01*
X36830Y434340D02*
Y441958D01*
X40639D01*
X41908Y440688D01*
Y438149D01*
X40639Y436879D01*
X36830D01*
X39369D02*
X41908Y434340D01*
X44447Y441958D02*
X49526Y434340D01*
Y441958D02*
X44447Y434340D01*
X36830Y416558D02*
X41908D01*
X39369D01*
Y408940D01*
X44447Y416558D02*
X49526Y408940D01*
Y416558D02*
X44447Y408940D01*
X85516Y217676D02*
Y209212D01*
X87209Y207520D01*
X90594D01*
X92287Y209212D01*
Y217676D01*
X95673Y215984D02*
X97366Y217676D01*
X100751D01*
X102444Y215984D01*
Y214291D01*
X100751Y212598D01*
X99058D01*
X100751D01*
X102444Y210905D01*
Y209212D01*
X100751Y207520D01*
X97366D01*
X95673Y209212D01*
X207781Y206398D02*
Y197934D01*
X209474Y196242D01*
X212859D01*
X214552Y197934D01*
Y206398D01*
X224709Y196242D02*
X217938D01*
X224709Y203013D01*
Y204706D01*
X223016Y206398D01*
X219630D01*
X217938Y204706D01*
X239609Y116838D02*
Y108374D01*
X241302Y106682D01*
X244687D01*
X246380Y108374D01*
Y116838D01*
X249766Y106682D02*
X253151D01*
X251458D01*
Y116838D01*
X249766Y115146D01*
X135892Y268399D02*
X146048D01*
Y273478D01*
X144355Y275170D01*
X142663D01*
X140970Y273478D01*
Y268399D01*
Y273478D01*
X139277Y275170D01*
X137584D01*
X135892Y273478D01*
Y268399D01*
Y283634D02*
Y280249D01*
X137584Y278556D01*
X144355D01*
X146048Y280249D01*
Y283634D01*
X144355Y285327D01*
X137584D01*
X135892Y283634D01*
Y293791D02*
Y290406D01*
X137584Y288713D01*
X144355D01*
X146048Y290406D01*
Y293791D01*
X144355Y295484D01*
X137584D01*
X135892Y293791D01*
Y298870D02*
Y305641D01*
Y302255D01*
X146048D01*
X233678Y278558D02*
X223522D01*
Y283636D01*
X225214Y285329D01*
X228600D01*
X230293Y283636D01*
Y278558D01*
Y281943D02*
X233678Y285329D01*
X225214Y295486D02*
X223522Y293793D01*
Y290407D01*
X225214Y288714D01*
X226907D01*
X228600Y290407D01*
Y293793D01*
X230293Y295486D01*
X231986D01*
X233678Y293793D01*
Y290407D01*
X231986Y288714D01*
X223522Y298871D02*
Y305642D01*
Y302257D01*
X233678D01*
X245282Y213616D02*
Y223772D01*
X250360D01*
X252053Y222080D01*
Y218694D01*
X250360Y217001D01*
X245282D01*
X248668D02*
X252053Y213616D01*
X255439Y223772D02*
X262210D01*
Y222080D01*
X255439Y215308D01*
Y213616D01*
X94406Y157482D02*
Y167638D01*
X99484D01*
X101177Y165946D01*
Y162560D01*
X99484Y160867D01*
X94406D01*
X97792D02*
X101177Y157482D01*
X111334Y167638D02*
X107948Y165946D01*
X104563Y162560D01*
Y159174D01*
X106256Y157482D01*
X109641D01*
X111334Y159174D01*
Y160867D01*
X109641Y162560D01*
X104563D01*
X243576Y135892D02*
Y146048D01*
X248654D01*
X250347Y144356D01*
Y140970D01*
X248654Y139277D01*
X243576D01*
X246962D02*
X250347Y135892D01*
X260504Y146048D02*
X253733D01*
Y140970D01*
X257118Y142663D01*
X258811D01*
X260504Y140970D01*
Y137584D01*
X258811Y135892D01*
X255426D01*
X253733Y137584D01*
X118108Y239186D02*
X107952D01*
Y244264D01*
X109644Y245957D01*
X113030D01*
X114723Y244264D01*
Y239186D01*
Y242572D02*
X118108Y245957D01*
Y254421D02*
X107952D01*
X113030Y249343D01*
Y256114D01*
X256966Y193189D02*
Y203345D01*
X262044D01*
X263737Y201653D01*
Y198267D01*
X262044Y196574D01*
X256966D01*
X260352D02*
X263737Y193189D01*
X267123Y201653D02*
X268816Y203345D01*
X272201D01*
X273894Y201653D01*
Y199960D01*
X272201Y198267D01*
X270508D01*
X272201D01*
X273894Y196574D01*
Y194881D01*
X272201Y193189D01*
X268816D01*
X267123Y194881D01*
X74928Y222676D02*
X64772D01*
Y227754D01*
X66464Y229447D01*
X69850D01*
X71543Y227754D01*
Y222676D01*
Y226062D02*
X74928Y229447D01*
Y239604D02*
Y232833D01*
X68157Y239604D01*
X66464D01*
X64772Y237911D01*
Y234526D01*
X66464Y232833D01*
X243419Y382272D02*
Y392428D01*
X248497D01*
X250190Y390736D01*
Y387350D01*
X248497Y385657D01*
X243419D01*
X246804D02*
X250190Y382272D01*
X253576D02*
X256961D01*
X255268D01*
Y392428D01*
X253576Y390736D01*
X33867Y160808D02*
X30482D01*
X32174D01*
Y152344D01*
X30482Y150652D01*
X28789D01*
X27096Y152344D01*
X37253Y159116D02*
X38946Y160808D01*
X42331D01*
X44024Y159116D01*
Y157423D01*
X42331Y155730D01*
X40638D01*
X42331D01*
X44024Y154037D01*
Y152344D01*
X42331Y150652D01*
X38946D01*
X37253Y152344D01*
X139023Y15492D02*
X135638D01*
X137330D01*
Y7028D01*
X135638Y5336D01*
X133945D01*
X132252Y7028D01*
X149180Y5336D02*
X142409D01*
X149180Y12107D01*
Y13800D01*
X147487Y15492D01*
X144102D01*
X142409Y13800D01*
X131572Y111250D02*
X128186D01*
X129879D01*
Y102786D01*
X128186Y101094D01*
X126494D01*
X124801Y102786D01*
X134958Y101094D02*
X138343D01*
X136650D01*
Y111250D01*
X134958Y109558D01*
X241096Y253998D02*
Y243842D01*
X246174D01*
X247867Y245534D01*
Y252306D01*
X246174Y253998D01*
X241096D01*
X251253Y252306D02*
X252946Y253998D01*
X256331D01*
X258024Y252306D01*
Y250613D01*
X256331Y248920D01*
X254638D01*
X256331D01*
X258024Y247227D01*
Y245534D01*
X256331Y243842D01*
X252946D01*
X251253Y245534D01*
X9316Y190498D02*
Y180342D01*
X14394D01*
X16087Y182034D01*
Y188806D01*
X14394Y190498D01*
X9316D01*
X26244Y180342D02*
X19473D01*
X26244Y187113D01*
Y188806D01*
X24551Y190498D01*
X21166D01*
X19473Y188806D01*
X155789Y252948D02*
Y242792D01*
X160867D01*
X162560Y244484D01*
Y251256D01*
X160867Y252948D01*
X155789D01*
X165946Y242792D02*
X169331D01*
X167638D01*
Y252948D01*
X165946Y251256D01*
X147109Y159172D02*
X145628Y160654D01*
X142665D01*
X141184Y159172D01*
Y153248D01*
X142665Y151766D01*
X145628D01*
X147109Y153248D01*
X150071D02*
X151552Y151766D01*
X154515D01*
X155996Y153248D01*
Y159172D01*
X154515Y160654D01*
X151552D01*
X150071Y159172D01*
Y157691D01*
X151552Y156210D01*
X155996D01*
X129117Y210396D02*
X127424Y212088D01*
X124039D01*
X122346Y210396D01*
Y203624D01*
X124039Y201932D01*
X127424D01*
X129117Y203624D01*
X132503Y210396D02*
X134196Y212088D01*
X137581D01*
X139274Y210396D01*
Y208703D01*
X137581Y207010D01*
X139274Y205317D01*
Y203624D01*
X137581Y201932D01*
X134196D01*
X132503Y203624D01*
Y205317D01*
X134196Y207010D01*
X132503Y208703D01*
Y210396D01*
X134196Y207010D02*
X137581D01*
X66887Y215476D02*
X65194Y217168D01*
X61809D01*
X60116Y215476D01*
Y208704D01*
X61809Y207012D01*
X65194D01*
X66887Y208704D01*
X70273Y217168D02*
X77044D01*
Y215476D01*
X70273Y208704D01*
Y207012D01*
X187029Y244686D02*
X185336Y246378D01*
X181951D01*
X180258Y244686D01*
Y237914D01*
X181951Y236222D01*
X185336D01*
X187029Y237914D01*
X197186Y246378D02*
X190415D01*
Y241300D01*
X193800Y242993D01*
X195493D01*
X197186Y241300D01*
Y237914D01*
X195493Y236222D01*
X192108D01*
X190415Y237914D01*
X111632Y361526D02*
X109939Y363218D01*
X106553D01*
X104860Y361526D01*
Y354754D01*
X106553Y353062D01*
X109939D01*
X111632Y354754D01*
X120096Y353062D02*
Y363218D01*
X115017Y358140D01*
X121788D01*
X224073Y356446D02*
X222380Y358138D01*
X218995D01*
X217302Y356446D01*
Y349674D01*
X218995Y347982D01*
X222380D01*
X224073Y349674D01*
X227458Y356446D02*
X229151Y358138D01*
X232537D01*
X234230Y356446D01*
Y354753D01*
X232537Y353060D01*
X230844D01*
X232537D01*
X234230Y351367D01*
Y349674D01*
X232537Y347982D01*
X229151D01*
X227458Y349674D01*
X242147Y473286D02*
X240454Y474978D01*
X237069D01*
X235376Y473286D01*
Y466514D01*
X237069Y464822D01*
X240454D01*
X242147Y466514D01*
X252304Y464822D02*
X245533D01*
X252304Y471593D01*
Y473286D01*
X250611Y474978D01*
X247226D01*
X245533Y473286D01*
X155448Y324950D02*
X153755Y326642D01*
X150370D01*
X148677Y324950D01*
Y318178D01*
X150370Y316486D01*
X153755D01*
X155448Y318178D01*
X158834Y316486D02*
X162219D01*
X160526D01*
Y326642D01*
X158834Y324950D01*
M02*
