G04*
G04 #@! TF.GenerationSoftware,Altium Limited,Altium Designer,25.8.1 (18)*
G04*
G04 Layer_Physical_Order=1*
G04 Layer_Color=255*
%FSLAX44Y44*%
%MOMM*%
G71*
G04*
G04 #@! TF.SameCoordinates,F1196714-0DB9-464D-985B-113CB06F2960*
G04*
G04*
G04 #@! TF.FilePolarity,Positive*
G04*
G01*
G75*
%ADD12C,0.1270*%
%ADD14C,0.2540*%
%ADD15C,1.2070*%
%ADD16R,0.7000X0.7000*%
%ADD17R,1.4500X1.4500*%
%ADD18R,0.4000X0.8000*%
%ADD19R,0.8000X0.4000*%
%ADD20R,0.7154X0.6725*%
%ADD21R,2.5582X1.0557*%
%ADD22R,1.0000X1.5500*%
%ADD23R,0.8500X0.9000*%
%ADD24R,1.9062X1.6044*%
%ADD25R,0.8000X0.8000*%
G04:AMPARAMS|DCode=26|XSize=1.2052mm|YSize=0.5321mm|CornerRadius=0.2661mm|HoleSize=0mm|Usage=FLASHONLY|Rotation=0.000|XOffset=0mm|YOffset=0mm|HoleType=Round|Shape=RoundedRectangle|*
%AMROUNDEDRECTD26*
21,1,1.2052,0.0000,0,0,0.0*
21,1,0.6731,0.5321,0,0,0.0*
1,1,0.5321,0.3366,0.0000*
1,1,0.5321,-0.3366,0.0000*
1,1,0.5321,-0.3366,0.0000*
1,1,0.5321,0.3366,0.0000*
%
%ADD26ROUNDEDRECTD26*%
%ADD27R,1.1051X1.0062*%
%ADD28R,2.1800X2.0000*%
%ADD29R,0.6000X1.1500*%
%ADD30R,0.5500X0.5500*%
%ADD31R,0.4500X0.5000*%
G04:AMPARAMS|DCode=32|XSize=1.5mm|YSize=0.9mm|CornerRadius=0.0495mm|HoleSize=0mm|Usage=FLASHONLY|Rotation=90.000|XOffset=0mm|YOffset=0mm|HoleType=Round|Shape=RoundedRectangle|*
%AMROUNDEDRECTD32*
21,1,1.5000,0.8010,0,0,90.0*
21,1,1.4010,0.9000,0,0,90.0*
1,1,0.0990,0.4005,0.7005*
1,1,0.0990,0.4005,-0.7005*
1,1,0.0990,-0.4005,-0.7005*
1,1,0.0990,-0.4005,0.7005*
%
%ADD32ROUNDEDRECTD32*%
%ADD33R,0.9000X0.8500*%
G04:AMPARAMS|DCode=34|XSize=0.23mm|YSize=0.7mm|CornerRadius=0.0495mm|HoleSize=0mm|Usage=FLASHONLY|Rotation=90.000|XOffset=0mm|YOffset=0mm|HoleType=Round|Shape=RoundedRectangle|*
%AMROUNDEDRECTD34*
21,1,0.2300,0.6011,0,0,90.0*
21,1,0.1311,0.7000,0,0,90.0*
1,1,0.0989,0.3005,0.0656*
1,1,0.0989,0.3005,-0.0656*
1,1,0.0989,-0.3005,-0.0656*
1,1,0.0989,-0.3005,0.0656*
%
%ADD34ROUNDEDRECTD34*%
%ADD35R,0.5596X0.4725*%
%ADD36R,1.2052X0.5321*%
%ADD37R,1.0121X1.1556*%
%ADD38R,0.2500X0.5000*%
%ADD39R,0.6725X0.6654*%
%ADD40R,0.9121X0.8587*%
%ADD41R,0.3000X1.1500*%
%ADD42R,0.8000X0.8000*%
%ADD43R,1.6000X1.5000*%
%ADD57C,0.6500*%
%ADD59C,0.6000*%
%ADD62C,0.1104*%
%ADD63C,0.1524*%
%ADD64C,1.5000*%
%ADD65R,1.5000X2.1000*%
%ADD66C,1.5500*%
%ADD67R,2.1000X1.5000*%
%ADD68R,1.5000X1.5000*%
%ADD69R,1.5500X1.5500*%
%ADD70C,0.6096*%
%ADD71C,0.5080*%
G36*
X158750Y470182D02*
Y468890D01*
X159523Y467022D01*
X160952Y465593D01*
X162560Y464927D01*
Y469900D01*
X165100D01*
Y464927D01*
X166708Y465593D01*
X168137Y467022D01*
X168697Y468375D01*
X170083Y469074D01*
X170180Y469023D01*
Y468890D01*
X170953Y467022D01*
X172382Y465593D01*
X173990Y464927D01*
Y469900D01*
X176530D01*
Y464927D01*
X178138Y465593D01*
X179567Y467022D01*
X180340Y468890D01*
Y470910D01*
X180823Y471138D01*
X181610Y470182D01*
Y468890D01*
X182383Y467022D01*
X183812Y465593D01*
X185420Y464927D01*
Y469900D01*
X187960D01*
Y464927D01*
X189568Y465593D01*
X190746Y466772D01*
X191806Y466734D01*
X192194Y466595D01*
X192543Y465752D01*
X193972Y464323D01*
X195580Y463657D01*
Y468630D01*
X198120D01*
Y463657D01*
X199210Y464109D01*
X200480Y463416D01*
Y457420D01*
Y444928D01*
X199210Y444675D01*
X198617Y446108D01*
X197188Y447537D01*
X195580Y448203D01*
Y443230D01*
Y438257D01*
X197188Y438923D01*
X198617Y440352D01*
X199210Y441785D01*
X200480Y441532D01*
Y433420D01*
Y422068D01*
X199210Y421815D01*
X198617Y423248D01*
X197188Y424677D01*
X195580Y425342D01*
Y420370D01*
Y415397D01*
X197188Y416063D01*
X198617Y417492D01*
X199210Y418925D01*
X200480Y418672D01*
Y409420D01*
Y401420D01*
Y393420D01*
Y387500D01*
X198732D01*
X198246Y388673D01*
X198363Y388790D01*
X199028Y390398D01*
X189083D01*
X189749Y388790D01*
X189867Y388673D01*
X189380Y387500D01*
X181714D01*
X181039Y388770D01*
X181502Y389890D01*
X171558D01*
X172021Y388770D01*
X171346Y387500D01*
X169150D01*
X168624Y388770D01*
X169407Y389552D01*
X170072Y391160D01*
X160128D01*
X160793Y389552D01*
X161576Y388770D01*
X161050Y387500D01*
X157720D01*
X157194Y388770D01*
X157977Y389552D01*
X158643Y391160D01*
X148698D01*
X149363Y389552D01*
X150146Y388770D01*
X149620Y387500D01*
X146290D01*
X145764Y388770D01*
X146547Y389552D01*
X147212Y391160D01*
X137268D01*
X137933Y389552D01*
X138716Y388770D01*
X138190Y387500D01*
X134860D01*
X134334Y388770D01*
X135117Y389552D01*
X135782Y391160D01*
X125837D01*
X126503Y389552D01*
X127286Y388770D01*
X126760Y387500D01*
X125032D01*
X124326Y388556D01*
X124353Y388620D01*
X113536D01*
X113161Y388059D01*
X113050Y387500D01*
X102602D01*
X102076Y388770D01*
X102605Y389298D01*
X103271Y390906D01*
X98298D01*
Y393446D01*
X103271D01*
X103077Y393914D01*
X103647Y394768D01*
X103994Y395017D01*
X105748Y395743D01*
X107177Y397172D01*
X107843Y398780D01*
X97898D01*
X98091Y398312D01*
X97386Y397256D01*
X97288D01*
X96616Y396978D01*
X95560Y397683D01*
Y409420D01*
Y415026D01*
X96830Y415795D01*
X98049Y415290D01*
X98970D01*
X99243Y414995D01*
X99694Y414020D01*
X99167Y412750D01*
X109113D01*
X108586Y414020D01*
X109037Y414995D01*
X109310Y415290D01*
X110231D01*
X112098Y416063D01*
X113527Y417492D01*
X114192Y419100D01*
X109220D01*
Y420370D01*
X107950D01*
Y425342D01*
X106342Y424677D01*
X104913Y423248D01*
X104775Y422914D01*
X103505D01*
X103367Y423248D01*
X101938Y424677D01*
X100330Y425342D01*
Y420370D01*
X97790D01*
Y425342D01*
X96830Y424945D01*
X96190Y425184D01*
X95560Y425714D01*
Y433420D01*
Y441420D01*
X96830Y441471D01*
X97293Y440352D01*
X98722Y438923D01*
X100330Y438257D01*
Y443230D01*
Y448203D01*
X98722Y447537D01*
X97293Y446108D01*
X96830Y444989D01*
X95560Y445242D01*
Y457420D01*
Y460690D01*
X89020D01*
Y463230D01*
X95560D01*
Y464182D01*
X96520Y464824D01*
Y469900D01*
X99060D01*
Y464927D01*
X100668Y465593D01*
X102097Y467022D01*
X102870Y468890D01*
Y470910D01*
X103353Y471138D01*
X104140Y470182D01*
Y468890D01*
X104913Y467022D01*
X106342Y465593D01*
X107950Y464927D01*
Y469900D01*
X110490D01*
Y464927D01*
X112098Y465593D01*
X113527Y467022D01*
X113665Y467356D01*
X114935D01*
X115073Y467022D01*
X116502Y465593D01*
X118110Y464927D01*
Y469900D01*
X120650D01*
Y464927D01*
X122258Y465593D01*
X123687Y467022D01*
X123825Y467356D01*
X125095D01*
X125233Y467022D01*
X126662Y465593D01*
X128270Y464927D01*
Y469900D01*
X130810D01*
Y464927D01*
X132418Y465593D01*
X133847Y467022D01*
X134620Y468890D01*
Y469397D01*
X135813Y468920D01*
X135932Y468789D01*
X136663Y467022D01*
X138092Y465593D01*
X139700Y464927D01*
Y469900D01*
X142240D01*
Y464927D01*
X143848Y465593D01*
X145277Y467022D01*
X145876Y468468D01*
X146652Y468882D01*
X147314Y468875D01*
X147352Y468812D01*
X148093Y467022D01*
X149522Y465593D01*
X151130Y464927D01*
Y469900D01*
X153670D01*
Y464927D01*
X155278Y465593D01*
X156707Y467022D01*
X157480Y468890D01*
Y470910D01*
X157963Y471138D01*
X158750Y470182D01*
D02*
G37*
%LPC*%
G36*
X180340Y459632D02*
X178830Y459007D01*
X177560Y459454D01*
Y459500D01*
X169040D01*
Y449710D01*
X166500D01*
Y459500D01*
X157980D01*
Y459500D01*
X157810D01*
Y459500D01*
X149290D01*
Y449710D01*
X146750D01*
Y459500D01*
X138230D01*
X138230Y459500D01*
X136960Y459053D01*
X136511Y459353D01*
X135520Y459550D01*
X127020D01*
X126029Y459353D01*
X125189Y458791D01*
X120650Y454253D01*
X119380Y454779D01*
Y455671D01*
X118607Y457538D01*
X117178Y458967D01*
X115570Y459632D01*
Y454660D01*
Y449688D01*
X117178Y450353D01*
X118430Y449810D01*
Y442460D01*
X118627Y441469D01*
X118927Y441020D01*
X118480Y439750D01*
X118480D01*
Y436464D01*
X117307Y435978D01*
X117178Y436107D01*
X115570Y436772D01*
Y431800D01*
Y426828D01*
X117178Y427493D01*
X117307Y427622D01*
X118480Y427136D01*
Y420170D01*
X118480D01*
Y420000D01*
X118480D01*
Y411480D01*
X128270D01*
Y410210D01*
X129540D01*
Y400420D01*
X138060D01*
Y400420D01*
X138230D01*
Y400420D01*
X146750D01*
Y410210D01*
X149290D01*
Y400420D01*
X157810D01*
Y400420D01*
X157980D01*
Y400420D01*
X166500D01*
Y410210D01*
X169040D01*
Y400420D01*
X177560D01*
Y404146D01*
X178830Y404593D01*
X180340Y403968D01*
Y408940D01*
Y413913D01*
X178830Y413287D01*
X177560Y413734D01*
Y415576D01*
X178830Y416023D01*
X180340Y415397D01*
Y420370D01*
Y425342D01*
X178830Y424717D01*
X177651Y425132D01*
X177607Y426341D01*
X178616Y427016D01*
X179070Y426828D01*
Y431800D01*
Y436772D01*
X178616Y436584D01*
X177560Y437290D01*
Y439706D01*
X177988Y439979D01*
X178830Y440096D01*
X180002Y438923D01*
X181610Y438257D01*
Y443230D01*
Y448203D01*
X180002Y447537D01*
X178830Y446364D01*
X177635Y446706D01*
X177560Y446754D01*
Y449866D01*
X178830Y450313D01*
X180340Y449688D01*
Y454660D01*
Y459632D01*
D02*
G37*
G36*
X113030D02*
X111422Y458967D01*
X109993Y457538D01*
X109855Y457203D01*
X108585D01*
X108447Y457538D01*
X107018Y458967D01*
X105410Y459632D01*
Y454660D01*
Y449688D01*
X107018Y450353D01*
X108447Y451782D01*
X108585Y452117D01*
X109855D01*
X109993Y451782D01*
X111422Y450353D01*
X113030Y449688D01*
Y454660D01*
Y459632D01*
D02*
G37*
G36*
X194310D02*
Y455930D01*
X198013D01*
X197347Y457538D01*
X195918Y458967D01*
X194310Y459632D01*
D02*
G37*
G36*
X191770D02*
X190162Y458967D01*
X188733Y457538D01*
X188067Y455930D01*
X191770D01*
Y459632D01*
D02*
G37*
G36*
X182880D02*
Y455930D01*
X186583D01*
X185917Y457538D01*
X184488Y458967D01*
X182880Y459632D01*
D02*
G37*
G36*
X102870D02*
X101262Y458967D01*
X99833Y457538D01*
X99167Y455930D01*
X102870D01*
Y459632D01*
D02*
G37*
G36*
X198013Y453390D02*
X194310D01*
Y449688D01*
X195918Y450353D01*
X197347Y451782D01*
X198013Y453390D01*
D02*
G37*
G36*
X191770D02*
X188067D01*
X188733Y451782D01*
X190162Y450353D01*
X191770Y449688D01*
Y453390D01*
D02*
G37*
G36*
X186583D02*
X182880D01*
Y449688D01*
X184488Y450353D01*
X185917Y451782D01*
X186583Y453390D01*
D02*
G37*
G36*
X102870D02*
X99167D01*
X99833Y451782D01*
X101262Y450353D01*
X102870Y449688D01*
Y453390D01*
D02*
G37*
G36*
X110490Y448203D02*
X108882Y447537D01*
X107453Y446108D01*
X107315Y445774D01*
X106045D01*
X105907Y446108D01*
X104478Y447537D01*
X102870Y448203D01*
Y443230D01*
Y438257D01*
X104478Y438923D01*
X105907Y440352D01*
X106045Y440686D01*
X107315D01*
X107453Y440352D01*
X108882Y438923D01*
X110490Y438257D01*
Y443230D01*
Y448203D01*
D02*
G37*
G36*
X193040D02*
X191432Y447537D01*
X190003Y446108D01*
X189338Y444500D01*
X193040D01*
Y448203D01*
D02*
G37*
G36*
X184150D02*
Y444500D01*
X187852D01*
X187187Y446108D01*
X185758Y447537D01*
X184150Y448203D01*
D02*
G37*
G36*
X113030D02*
Y444500D01*
X116733D01*
X116067Y446108D01*
X114638Y447537D01*
X113030Y448203D01*
D02*
G37*
G36*
X193040Y441960D02*
X189338D01*
X190003Y440352D01*
X191432Y438923D01*
X193040Y438257D01*
Y441960D01*
D02*
G37*
G36*
X187852D02*
X184150D01*
Y438257D01*
X185758Y438923D01*
X187187Y440352D01*
X187852Y441960D01*
D02*
G37*
G36*
X116733D02*
X113030D01*
Y438257D01*
X114638Y438923D01*
X116067Y440352D01*
X116733Y441960D01*
D02*
G37*
G36*
X194310Y436772D02*
Y433070D01*
X198013D01*
X197347Y434678D01*
X195918Y436107D01*
X194310Y436772D01*
D02*
G37*
G36*
X191770D02*
X190162Y436107D01*
X188733Y434678D01*
X188067Y433070D01*
X191770D01*
Y436772D01*
D02*
G37*
G36*
X181610D02*
Y433070D01*
X185312D01*
X184647Y434678D01*
X183218Y436107D01*
X181610Y436772D01*
D02*
G37*
G36*
X113030D02*
X111422Y436107D01*
X109993Y434678D01*
X109327Y433070D01*
X113030D01*
Y436772D01*
D02*
G37*
G36*
X104140D02*
Y433070D01*
X107843D01*
X107177Y434678D01*
X105748Y436107D01*
X104140Y436772D01*
D02*
G37*
G36*
X101600D02*
X99992Y436107D01*
X98563Y434678D01*
X97898Y433070D01*
X101600D01*
Y436772D01*
D02*
G37*
G36*
X198013Y430530D02*
X194310D01*
Y426828D01*
X195918Y427493D01*
X197347Y428922D01*
X198013Y430530D01*
D02*
G37*
G36*
X191770D02*
X188067D01*
X188733Y428922D01*
X190162Y427493D01*
X191770Y426828D01*
Y430530D01*
D02*
G37*
G36*
X185312D02*
X181610D01*
Y426828D01*
X183218Y427493D01*
X184647Y428922D01*
X185312Y430530D01*
D02*
G37*
G36*
X113030D02*
X109327D01*
X109993Y428922D01*
X111422Y427493D01*
X113030Y426828D01*
Y430530D01*
D02*
G37*
G36*
X107843D02*
X104140D01*
Y426828D01*
X105748Y427493D01*
X107177Y428922D01*
X107843Y430530D01*
D02*
G37*
G36*
X101600D02*
X97898D01*
X98563Y428922D01*
X99992Y427493D01*
X101600Y426828D01*
Y430530D01*
D02*
G37*
G36*
X193040Y425342D02*
X191432Y424677D01*
X190003Y423248D01*
X189338Y421640D01*
X193040D01*
Y425342D01*
D02*
G37*
G36*
X182880D02*
Y421640D01*
X186583D01*
X185917Y423248D01*
X184488Y424677D01*
X182880Y425342D01*
D02*
G37*
G36*
X110490D02*
Y421640D01*
X114192D01*
X113527Y423248D01*
X112098Y424677D01*
X110490Y425342D01*
D02*
G37*
G36*
X193040Y419100D02*
X189338D01*
X190003Y417492D01*
X191432Y416063D01*
X193040Y415397D01*
Y419100D01*
D02*
G37*
G36*
X186583D02*
X182880D01*
Y415397D01*
X184488Y416063D01*
X185917Y417492D01*
X186583Y419100D01*
D02*
G37*
G36*
X194310Y413913D02*
Y410210D01*
X198013D01*
X197347Y411818D01*
X195918Y413247D01*
X194310Y413913D01*
D02*
G37*
G36*
X191770D02*
X190162Y413247D01*
X188733Y411818D01*
X188067Y410210D01*
X191770D01*
Y413913D01*
D02*
G37*
G36*
X182880D02*
Y410210D01*
X186583D01*
X185917Y411818D01*
X184488Y413247D01*
X182880Y413913D01*
D02*
G37*
G36*
X109113Y410210D02*
X105410D01*
Y406507D01*
X107018Y407173D01*
X108447Y408602D01*
X109113Y410210D01*
D02*
G37*
G36*
X102870D02*
X99167D01*
X99833Y408602D01*
X101262Y407173D01*
X102870Y406507D01*
Y410210D01*
D02*
G37*
G36*
X127000Y408940D02*
X118480D01*
Y404714D01*
X117307Y404227D01*
X117178Y404357D01*
X115570Y405023D01*
Y400050D01*
Y395078D01*
X115599Y395090D01*
X116319Y394013D01*
X115073Y392768D01*
X114408Y391160D01*
X118110D01*
Y394863D01*
X118081Y394850D01*
X117361Y395927D01*
X118607Y397172D01*
X119380Y399039D01*
Y400420D01*
X127000D01*
Y408940D01*
D02*
G37*
G36*
X198013Y407670D02*
X194310D01*
Y403968D01*
X195918Y404633D01*
X197347Y406062D01*
X198013Y407670D01*
D02*
G37*
G36*
X191770D02*
X188067D01*
X188733Y406062D01*
X190162Y404633D01*
X191770Y403968D01*
Y407670D01*
D02*
G37*
G36*
X113030Y405023D02*
X111422Y404357D01*
X109993Y402928D01*
X109327Y401320D01*
X113030D01*
Y405023D01*
D02*
G37*
G36*
X104140D02*
Y401320D01*
X107843D01*
X107177Y402928D01*
X105748Y404357D01*
X104140Y405023D01*
D02*
G37*
G36*
X101600D02*
X99992Y404357D01*
X98563Y402928D01*
X97898Y401320D01*
X101600D01*
Y405023D01*
D02*
G37*
G36*
X187960Y403753D02*
Y400050D01*
X191663D01*
X190997Y401658D01*
X189568Y403087D01*
X187960Y403753D01*
D02*
G37*
G36*
X186583Y407670D02*
X182880D01*
Y403968D01*
X182909Y403980D01*
X183629Y402903D01*
X182383Y401658D01*
X181717Y400050D01*
X185420D01*
Y403753D01*
X185391Y403740D01*
X184671Y404817D01*
X185917Y406062D01*
X186583Y407670D01*
D02*
G37*
G36*
X113030Y398780D02*
X109327D01*
X109993Y397172D01*
X111422Y395743D01*
X113030Y395078D01*
Y398780D01*
D02*
G37*
G36*
X185420Y397510D02*
X181717D01*
X182383Y395902D01*
X183812Y394473D01*
X185420Y393807D01*
Y397510D01*
D02*
G37*
G36*
X166370Y397402D02*
Y393700D01*
X170072D01*
X169407Y395308D01*
X167978Y396737D01*
X166370Y397402D01*
D02*
G37*
G36*
X163830D02*
X162222Y396737D01*
X160793Y395308D01*
X160128Y393700D01*
X163830D01*
Y397402D01*
D02*
G37*
G36*
X154940D02*
Y393700D01*
X158643D01*
X157977Y395308D01*
X156548Y396737D01*
X154940Y397402D01*
D02*
G37*
G36*
X152400D02*
X150792Y396737D01*
X149363Y395308D01*
X148698Y393700D01*
X152400D01*
Y397402D01*
D02*
G37*
G36*
X143510D02*
Y393700D01*
X147212D01*
X146547Y395308D01*
X145118Y396737D01*
X143510Y397402D01*
D02*
G37*
G36*
X140970D02*
X139362Y396737D01*
X137933Y395308D01*
X137268Y393700D01*
X140970D01*
Y397402D01*
D02*
G37*
G36*
X132080D02*
Y393700D01*
X135782D01*
X135117Y395308D01*
X133688Y396737D01*
X132080Y397402D01*
D02*
G37*
G36*
X129540D02*
X127932Y396737D01*
X126503Y395308D01*
X125837Y393700D01*
X129540D01*
Y397402D01*
D02*
G37*
G36*
X195326Y396641D02*
Y392938D01*
X199028D01*
X198363Y394546D01*
X196934Y395975D01*
X195326Y396641D01*
D02*
G37*
G36*
X191730Y397510D02*
X187960D01*
Y393807D01*
X188092Y393862D01*
X189016Y392938D01*
X192786D01*
Y396641D01*
X192654Y396586D01*
X191730Y397510D01*
D02*
G37*
G36*
X177800Y396133D02*
Y392430D01*
X181502D01*
X180837Y394038D01*
X179408Y395467D01*
X177800Y396133D01*
D02*
G37*
G36*
X175260D02*
X173652Y395467D01*
X172223Y394038D01*
X171558Y392430D01*
X175260D01*
Y396133D01*
D02*
G37*
G36*
X120650Y394863D02*
Y391160D01*
X124353D01*
X123687Y392768D01*
X122258Y394197D01*
X120650Y394863D01*
D02*
G37*
%LPD*%
G36*
X135520Y442460D02*
X121020D01*
Y450960D01*
X127020Y456960D01*
X135520D01*
Y442460D01*
D02*
G37*
D12*
X110830Y189230D02*
X116078D01*
X90170Y198310D02*
Y201930D01*
X89830Y189230D02*
X100330D01*
X89950Y185350D02*
X97100D01*
X89950Y175172D02*
Y181110D01*
X84730Y193040D02*
X89640D01*
X89830Y193230D01*
D14*
X174872Y77440D02*
G03*
X160990Y71690I0J-19632D01*
G01*
X162358D02*
G03*
X170180Y74930I0J11062D01*
G01*
X130448Y160020D02*
G03*
X130810Y160170I0J512D01*
G01*
X172520Y479460D02*
X207520D01*
X174872Y77440D02*
X180090D01*
X160990Y71690D02*
X162358D01*
X160420Y71120D02*
X160990Y71690D01*
X140636Y325120D02*
X140970D01*
X119380Y160020D02*
X130448D01*
X68675Y426815D02*
X79820Y437960D01*
X68675Y422544D02*
Y426815D01*
X56849Y410718D02*
X68675Y422544D01*
X79820Y437960D02*
X89020D01*
X217250Y97870D02*
Y106300D01*
X209948Y97870D02*
X217090D01*
X208460Y99358D02*
X209948Y97870D01*
X217090D02*
X217170Y97790D01*
X208460Y99358D02*
Y109852D01*
X212250Y112828D02*
Y114300D01*
X210762Y111340D02*
X212250Y112828D01*
X209948Y111340D02*
X210762D01*
X208460Y109852D02*
X209948Y111340D01*
X116078Y189230D02*
X122428Y195580D01*
X146140D02*
X162560D01*
X143010Y198710D02*
X146140Y195580D01*
X124732Y198710D02*
X143010D01*
X121602Y195580D02*
X124732Y198710D01*
X121602Y195580D02*
X122428D01*
X79950Y413960D02*
X89020D01*
X72390Y406400D02*
X79950Y413960D01*
X72390Y383540D02*
Y406400D01*
X207691Y354330D02*
X215348D01*
X224238Y363220D01*
Y374650D01*
X256540Y311150D02*
Y327238D01*
X210640Y328930D02*
X224238D01*
X209800Y328090D02*
X210640Y328930D01*
X207691Y330199D02*
Y354330D01*
Y330199D02*
X209800Y328090D01*
Y275590D02*
Y328090D01*
X213868Y378460D02*
X215900Y380492D01*
X212852Y378460D02*
X213868D01*
X212840Y378472D02*
X212852Y378460D01*
X207520Y380460D02*
X209508Y378472D01*
X212840D01*
X225203Y409033D02*
X233680Y417510D01*
X98272Y392150D02*
X98298Y392176D01*
X93210Y392150D02*
X98272D01*
X91020Y389960D02*
X93210Y392150D01*
X89020Y389960D02*
X91020D01*
X196020Y478960D02*
X196435Y478545D01*
Y469045D02*
Y478545D01*
Y469045D02*
X196850Y468630D01*
X162720Y115291D02*
Y117690D01*
X169518Y104802D02*
Y108493D01*
X162720Y115291D02*
X169518Y108493D01*
Y104802D02*
X170180Y104140D01*
X263190Y71690D02*
X263890Y72390D01*
X278130D01*
X263190Y32390D02*
X266370Y29210D01*
X278130D01*
X159080Y30480D02*
X160990Y32390D01*
X146050Y30480D02*
X159080D01*
X146050Y71120D02*
X160420D01*
X160020Y168910D02*
X172570D01*
X185420Y169060D02*
X185570Y168910D01*
X185420Y169060D02*
Y179070D01*
X251460Y446309D02*
X252191Y447040D01*
X274320D01*
X172020Y478960D02*
X172520Y479460D01*
X172020Y478960D02*
X172750Y478230D01*
X164020Y478960D02*
X172020D01*
X172750Y473097D02*
X175260Y470587D01*
Y469900D02*
Y470587D01*
X172750Y473097D02*
Y478230D01*
X148020Y478960D02*
X156020D01*
X164020D01*
X148020D02*
X148750Y478230D01*
X152400Y469900D02*
Y470587D01*
X148750Y474237D02*
Y478230D01*
Y474237D02*
X152400Y470587D01*
X221245Y258075D02*
X226060Y262890D01*
X221245Y254895D02*
Y258075D01*
X215270Y248920D02*
X221245Y254895D01*
X190497Y354330D02*
X198120D01*
Y175260D02*
X213015D01*
X244600Y92200D02*
X245110Y92710D01*
X244090Y77440D02*
X244600Y77950D01*
Y92200D01*
X215900Y142240D02*
X225950D01*
X222250Y114300D02*
Y123190D01*
Y108966D02*
Y114300D01*
X187352Y351185D02*
X190497Y354330D01*
X186690Y346710D02*
X187352Y347372D01*
Y351185D01*
X189230Y220366D02*
X189844Y220980D01*
X189230Y203200D02*
Y220366D01*
X177800Y257810D02*
Y275590D01*
X176530Y329360D02*
Y342900D01*
Y329360D02*
X177800Y328090D01*
X140970Y323850D02*
Y325120D01*
X132020Y478960D02*
X140020D01*
X148020D01*
X131290Y478230D02*
X132020Y478960D01*
X131290Y472337D02*
Y478230D01*
X129540Y470587D02*
X131290Y472337D01*
X129540Y469900D02*
Y470587D01*
X116020Y478960D02*
X124020D01*
X132020D01*
X108020D02*
X116020D01*
X108734Y470386D02*
X109220Y469900D01*
X100020Y478960D02*
X108020D01*
X108734Y478246D01*
X99520Y479460D02*
X100020Y478960D01*
X108734Y470386D02*
Y478246D01*
X97760Y469930D02*
X97790Y469900D01*
X88520Y479460D02*
X99520D01*
X89020Y469960D02*
X89050Y469930D01*
X88520Y470460D02*
Y479460D01*
Y470460D02*
X89020Y469960D01*
X89050Y469930D02*
X97760D01*
X89020Y461960D02*
Y469960D01*
X34277Y394970D02*
X34965D01*
X30610Y391303D02*
X34277Y394970D01*
X19050Y389890D02*
X20463Y391303D01*
X30610D01*
X119380Y389203D02*
Y389890D01*
X116750Y381690D02*
Y386573D01*
X140289Y325467D02*
Y340360D01*
Y325467D02*
X140636Y325120D01*
X116750Y386573D02*
X119380Y389203D01*
X116020Y380960D02*
X116750Y381690D01*
X130810Y177650D02*
X130960Y177800D01*
X144780D01*
X130810Y134620D02*
Y147170D01*
X108440Y107950D02*
X109230Y108740D01*
X101600Y170180D02*
Y180340D01*
X91440Y107950D02*
X108440D01*
X88520Y380460D02*
Y389460D01*
X88985Y389925D01*
X86507Y357993D02*
X86654Y358140D01*
X86507Y345587D02*
Y357993D01*
X86360Y345440D02*
X86507Y345587D01*
X87290Y326390D02*
X88140Y327240D01*
X71120Y326390D02*
X87290D01*
X86450Y273050D02*
X88140Y274740D01*
X71120Y273050D02*
X86450D01*
X67460Y182880D02*
X68580Y184000D01*
X54610Y182880D02*
X67460D01*
X67310Y162560D02*
X78787D01*
X62230Y78740D02*
X82550D01*
X213015Y184760D02*
X216381D01*
X222851Y178289D01*
Y172231D02*
Y178289D01*
X216381Y165760D02*
X222851Y172231D01*
X213015Y165760D02*
X216381D01*
X213015D02*
X213188Y165588D01*
Y155112D02*
Y165588D01*
Y155112D02*
X213360Y154940D01*
X182720Y117690D02*
X182880Y117530D01*
Y104140D02*
Y117530D01*
X115570Y229870D02*
X131943D01*
X132080Y230007D01*
X90170Y248783D02*
X90307Y248920D01*
X110490Y205740D02*
X110830Y205400D01*
X90307Y248920D02*
X106680D01*
X130960Y190500D02*
X142240D01*
X110830Y197230D02*
Y205400D01*
X130810Y190650D02*
X130960Y190500D01*
X231770Y248920D02*
X242570Y238120D01*
Y225368D02*
Y238120D01*
X236473Y219271D02*
X242570Y225368D01*
X234467Y219271D02*
X236473D01*
X232410Y217214D02*
X234467Y219271D01*
X100020Y361934D02*
Y380960D01*
X98532Y360447D02*
X100020Y361934D01*
X98532Y360232D02*
Y360447D01*
X96440Y358140D02*
X98532Y360232D01*
X96226Y358140D02*
X96440D01*
X160603Y344170D02*
X161290D01*
X157247Y340814D02*
X160603Y344170D01*
X150314Y340814D02*
X157247D01*
X149860Y340360D02*
X150314Y340814D01*
X251460Y416560D02*
Y417291D01*
Y416560D02*
X271780D01*
X256540Y371262D02*
X261620D01*
Y383540D01*
X162060Y231580D02*
X162560D01*
X146127Y247513D02*
X162060Y231580D01*
X132080Y247513D02*
X146127D01*
X77963Y231277D02*
X90170D01*
X46706Y200020D02*
X77963Y231277D01*
X35560Y200020D02*
X46706D01*
X89950Y175172D02*
X91440Y173682D01*
Y172720D02*
Y173682D01*
X59499Y171450D02*
X59934Y171886D01*
X47630Y171450D02*
X59499D01*
X35560Y183520D02*
X47630Y171450D01*
X265430Y152400D02*
Y164953D01*
X234025Y165760D02*
X235916D01*
X237200Y164475D01*
Y156192D02*
Y164475D01*
Y156192D02*
X240030Y153362D01*
Y152400D02*
Y153362D01*
X233405Y165760D02*
X234025D01*
X232120Y164475D02*
X233405Y165760D01*
X232120Y159289D02*
Y164475D01*
X229870Y157039D02*
X232120Y159289D01*
X229870Y149860D02*
Y157039D01*
Y149860D02*
X233470Y146260D01*
Y143720D02*
Y146260D01*
Y143720D02*
X234950Y142240D01*
X86313Y162560D02*
Y167687D01*
X80010Y173990D02*
Y188239D01*
Y173990D02*
X86313Y167687D01*
X80010Y188239D02*
X84770Y192999D01*
X96440Y358140D02*
X98532Y356048D01*
Y351598D02*
Y356048D01*
Y351598D02*
X120140Y329990D01*
Y327240D02*
Y329990D01*
Y274740D02*
Y327240D01*
X179865Y360680D02*
X180340D01*
X172020Y368525D02*
Y380960D01*
Y368525D02*
X179865Y360680D01*
X163925Y380865D02*
X164020Y380960D01*
X163925Y356965D02*
Y380865D01*
X163830Y356870D02*
X163925Y356965D01*
X147320Y358140D02*
X156020Y366840D01*
Y380960D01*
X148020Y373028D02*
Y380960D01*
X144562Y369570D02*
X148020Y373028D01*
X139700Y369570D02*
X144562D01*
X129540Y359410D02*
X139700Y369570D01*
X60960Y396240D02*
Y405130D01*
X64770Y408940D01*
Y409098D01*
X83442Y427770D01*
X84830D01*
X87020Y429960D01*
X89020D01*
X207020Y437960D02*
X224108D01*
X233680Y428388D01*
Y417510D02*
Y428388D01*
X207020Y429960D02*
X214991D01*
X220771Y424180D01*
X223520D01*
X53340Y196850D02*
X68430D01*
X68580Y197000D01*
X265430Y181757D02*
X266700D01*
X265430D02*
Y196850D01*
X234025Y184760D02*
Y196850D01*
X233680D02*
X234025D01*
X218440Y224790D02*
Y227286D01*
X232410D01*
X203856Y224790D02*
X218440D01*
X203856Y220980D02*
Y224790D01*
X88670Y454310D02*
X89020Y453960D01*
X66390Y454310D02*
X88670D01*
X66040Y454660D02*
X66390Y454310D01*
D15*
X128762Y449218D02*
D03*
D16*
X88520Y479460D02*
D03*
Y380460D02*
D03*
X207520D02*
D03*
Y479460D02*
D03*
D17*
X167770Y429960D02*
D03*
X148020D02*
D03*
X128270D02*
D03*
X167770Y410210D02*
D03*
X148020D02*
D03*
X128270D02*
D03*
X167770Y449710D02*
D03*
X148020D02*
D03*
D18*
X100020Y478960D02*
D03*
X108020D02*
D03*
X116020D02*
D03*
X124020D02*
D03*
X132020D02*
D03*
X140020D02*
D03*
X148020D02*
D03*
X156020D02*
D03*
X164020D02*
D03*
X172020D02*
D03*
X180020D02*
D03*
X188020D02*
D03*
X196020D02*
D03*
Y380960D02*
D03*
X188020D02*
D03*
X180020D02*
D03*
X172020D02*
D03*
X164020D02*
D03*
X156020D02*
D03*
X148020D02*
D03*
X140020D02*
D03*
X132020D02*
D03*
X124020D02*
D03*
X116020D02*
D03*
X108020D02*
D03*
X100020D02*
D03*
D19*
X207020Y469960D02*
D03*
Y461960D02*
D03*
Y453960D02*
D03*
Y445960D02*
D03*
Y437960D02*
D03*
Y429960D02*
D03*
Y421960D02*
D03*
Y413960D02*
D03*
Y405960D02*
D03*
Y397960D02*
D03*
Y389960D02*
D03*
X89020D02*
D03*
Y397960D02*
D03*
Y405960D02*
D03*
Y413960D02*
D03*
Y421960D02*
D03*
Y429960D02*
D03*
Y437960D02*
D03*
Y445960D02*
D03*
Y453960D02*
D03*
Y461960D02*
D03*
Y469960D02*
D03*
D20*
X207691Y354330D02*
D03*
X198120D02*
D03*
X140289Y340360D02*
D03*
X86654Y358140D02*
D03*
X96226D02*
D03*
X149860Y340360D02*
D03*
D21*
X256540Y327238D02*
D03*
Y371262D02*
D03*
D22*
X209800Y275590D02*
D03*
Y328090D02*
D03*
X177800Y275590D02*
D03*
Y328090D02*
D03*
X88140Y274740D02*
D03*
Y327240D02*
D03*
X120140D02*
D03*
Y274740D02*
D03*
D23*
X185570Y168910D02*
D03*
X172570D02*
D03*
D24*
X251460Y446309D02*
D03*
Y417291D02*
D03*
D25*
X215270Y248920D02*
D03*
X231770D02*
D03*
D26*
X213015Y175260D02*
D03*
Y165760D02*
D03*
X234025D02*
D03*
Y184760D02*
D03*
D27*
X189844Y220980D02*
D03*
X203856D02*
D03*
D28*
X263190Y71690D02*
D03*
Y32390D02*
D03*
X160990Y71690D02*
D03*
Y32390D02*
D03*
D29*
X244090Y77440D02*
D03*
X180090D02*
D03*
X188090D02*
D03*
X236090D02*
D03*
D30*
X225950Y142240D02*
D03*
X234950D02*
D03*
D31*
X222250Y114300D02*
D03*
Y106300D02*
D03*
D32*
X100330Y189230D02*
D03*
D33*
X130810Y177650D02*
D03*
Y147170D02*
D03*
X68580Y184000D02*
D03*
X130810Y190650D02*
D03*
Y160170D02*
D03*
X68580Y197000D02*
D03*
D34*
X110830Y185230D02*
D03*
X89830D02*
D03*
Y189230D02*
D03*
X110830Y197230D02*
D03*
X89830D02*
D03*
Y193230D02*
D03*
Y181230D02*
D03*
X110830Y193230D02*
D03*
Y189230D02*
D03*
Y181230D02*
D03*
D35*
X78787Y162560D02*
D03*
X86313D02*
D03*
D36*
X213015Y184760D02*
D03*
D37*
X132080Y230007D02*
D03*
X90170Y248783D02*
D03*
X132080Y247513D02*
D03*
X90170Y231277D02*
D03*
D38*
X212250Y114300D02*
D03*
X217250D02*
D03*
X227250D02*
D03*
X232250D02*
D03*
Y106300D02*
D03*
X227250D02*
D03*
X217250D02*
D03*
X212250D02*
D03*
D39*
X232410Y227286D02*
D03*
Y217214D02*
D03*
D40*
X266700Y166223D02*
D03*
Y181757D02*
D03*
D41*
X204590Y77440D02*
D03*
X209590D02*
D03*
X194590D02*
D03*
X199590D02*
D03*
X214590D02*
D03*
X219590D02*
D03*
X224590D02*
D03*
X229590D02*
D03*
D42*
X35560Y183520D02*
D03*
Y200020D02*
D03*
D43*
X162560Y195580D02*
D03*
Y231580D02*
D03*
D57*
X183190Y66690D02*
D03*
X240990D02*
D03*
D59*
X157895Y449710D02*
D03*
Y429960D02*
D03*
Y410210D02*
D03*
X138145Y449710D02*
D03*
Y429960D02*
D03*
Y410210D02*
D03*
X167770Y420085D02*
D03*
X148020D02*
D03*
X128270D02*
D03*
X167770Y439835D02*
D03*
X148020D02*
D03*
X128270D02*
D03*
X170180Y104140D02*
D03*
X160020Y168910D02*
D03*
X274320Y447040D02*
D03*
X226060Y262890D02*
D03*
X198120Y175260D02*
D03*
X189230Y203200D02*
D03*
X245110Y92710D02*
D03*
X222250Y123190D02*
D03*
X215900Y142240D02*
D03*
X186690Y346710D02*
D03*
X176530Y342900D02*
D03*
X177800Y257810D02*
D03*
X144780Y177800D02*
D03*
X140970Y323850D02*
D03*
X130810Y134620D02*
D03*
X101600Y170180D02*
D03*
X71120Y273050D02*
D03*
Y326390D02*
D03*
X91440Y107950D02*
D03*
X82550Y78740D02*
D03*
X54610Y182880D02*
D03*
X67310Y162560D02*
D03*
X265430Y196850D02*
D03*
X233680D02*
D03*
X218440Y224790D02*
D03*
D62*
X232781Y125105D02*
X233731Y126056D01*
X236156Y123631D01*
X237834Y125310D01*
X235410Y127734D02*
X237834Y125310D01*
X235410Y127734D02*
X235800Y128125D01*
X227908Y120232D02*
X232781Y125105D01*
X235800Y128125D02*
X248285Y140610D01*
X215621Y82638D02*
X216268Y83285D01*
X216808Y88538D02*
X228512Y100242D01*
X214590Y81690D02*
X215538Y82638D01*
X214590Y77440D02*
Y81690D01*
X215538Y82638D02*
X215621D01*
X216268Y83285D02*
Y83945D01*
X216808Y84485D02*
Y88538D01*
X216268Y83945D02*
X216808Y84485D01*
X219182Y87555D02*
X230886Y99258D01*
X219182Y83078D02*
Y87555D01*
X228512Y100242D02*
Y101059D01*
X228563Y101110D01*
X230886Y100076D02*
X230937Y100127D01*
X230886Y99258D02*
Y100076D01*
X230937Y100127D02*
Y103737D01*
X227250Y105050D02*
X228563Y103737D01*
Y101110D02*
Y103737D01*
X230937Y103737D02*
X232250Y105050D01*
Y106300D01*
X248285Y140610D02*
Y252456D01*
X254381Y137217D02*
Y254981D01*
X227908Y116840D02*
Y120232D01*
X215465Y398912D02*
X220545Y393832D01*
X207972Y405008D02*
X217990D01*
X226641Y391906D02*
X237915Y380632D01*
Y271447D02*
X254381Y254981D01*
X207972Y398912D02*
X215465D01*
X207020Y397960D02*
X207972Y398912D01*
X220545Y389381D02*
Y393832D01*
X231819Y268922D02*
Y378107D01*
Y268922D02*
X248285Y252456D01*
X220545Y389381D02*
X231819Y378107D01*
X207020Y405960D02*
X207972Y405008D01*
X231592Y116840D02*
X234004D01*
X226641Y391906D02*
Y396357D01*
X234004Y116840D02*
X254381Y137217D01*
X237915Y271447D02*
Y380632D01*
X217990Y405008D02*
X226641Y396357D01*
X227250Y105050D02*
Y106300D01*
X232410D02*
Y114140D01*
X219182Y77032D02*
X219590Y77440D01*
X219182Y70409D02*
Y77032D01*
X217371Y68598D02*
X219182Y70409D01*
X211809Y68598D02*
X217371D01*
X209998Y70409D02*
X211809Y68598D01*
X209998Y70409D02*
Y77032D01*
X209590Y77440D02*
X209998Y77032D01*
X204590Y77440D02*
X204998Y77848D01*
Y84471D01*
X206809Y86282D01*
X212371D01*
X214182Y84471D01*
Y77848D02*
Y84471D01*
Y77848D02*
X214590Y77440D01*
X227250Y114300D02*
X227592Y113958D01*
Y107857D02*
Y113958D01*
Y107857D02*
X227908Y107541D01*
X232250Y114300D02*
X232410Y114140D01*
D63*
X100330Y188460D02*
Y188580D01*
X97100Y185350D02*
X100330Y188580D01*
Y189230D01*
X103560Y185230D02*
X110830D01*
X100330Y181610D02*
X101600Y180340D01*
X100330Y188460D02*
X103560Y185230D01*
X100330Y181610D02*
Y188460D01*
X89830Y185230D02*
X89950Y185350D01*
D64*
X162720Y117690D02*
D03*
D65*
X109230Y108740D02*
D03*
D66*
X19050Y389890D02*
D03*
Y328930D02*
D03*
Y303530D02*
D03*
Y278130D02*
D03*
Y252730D02*
D03*
Y227330D02*
D03*
Y415290D02*
D03*
Y440690D02*
D03*
D67*
X62230Y78740D02*
D03*
Y138740D02*
D03*
D68*
X182720Y117690D02*
D03*
D69*
X19050Y354330D02*
D03*
Y466090D02*
D03*
D70*
X56849Y410718D02*
D03*
X72390Y383540D02*
D03*
X224238Y374650D02*
D03*
X256540Y311150D02*
D03*
X224238Y328930D02*
D03*
X217170Y97790D02*
D03*
X91440Y172720D02*
D03*
X59934Y171886D02*
D03*
X265430Y152400D02*
D03*
X240030D02*
D03*
X180340Y360680D02*
D03*
X163830Y356870D02*
D03*
X147320Y358140D02*
D03*
X129540Y359410D02*
D03*
X60960Y396240D02*
D03*
X225203Y409033D02*
D03*
X223520Y424180D02*
D03*
X53340Y196850D02*
D03*
X66040Y454660D02*
D03*
D71*
X215900Y380492D02*
D03*
X194056Y391668D02*
D03*
X196850Y468630D02*
D03*
X90170Y201930D02*
D03*
X119380Y160020D02*
D03*
X278130Y29210D02*
D03*
Y72390D02*
D03*
X146050Y30480D02*
D03*
Y71120D02*
D03*
X185420Y179070D02*
D03*
X186690Y469900D02*
D03*
X193040Y454660D02*
D03*
X181610D02*
D03*
X194310Y443230D02*
D03*
Y420370D02*
D03*
X193040Y431800D02*
D03*
Y408940D02*
D03*
X182880Y443230D02*
D03*
X180340Y431800D02*
D03*
X181610Y420370D02*
D03*
Y408940D02*
D03*
X175260Y469900D02*
D03*
X163830D02*
D03*
X152400D02*
D03*
X176530Y391160D02*
D03*
X165100Y392430D02*
D03*
X153670D02*
D03*
X186690Y398780D02*
D03*
X140970Y469900D02*
D03*
X129540D02*
D03*
X119380D02*
D03*
X114300Y454660D02*
D03*
X109220Y469900D02*
D03*
X114300Y431800D02*
D03*
X111760Y443230D02*
D03*
X114300Y400050D02*
D03*
X109220Y420370D02*
D03*
X104140Y454660D02*
D03*
X97790Y469900D02*
D03*
X102870Y431800D02*
D03*
Y400050D02*
D03*
X104140Y411480D02*
D03*
X99060Y420370D02*
D03*
X101600Y443230D02*
D03*
X34965Y394970D02*
D03*
X130810Y392430D02*
D03*
X119380Y389890D02*
D03*
X142240Y392430D02*
D03*
X98298Y392176D02*
D03*
X86360Y345440D02*
D03*
X213360Y154940D02*
D03*
X182880Y104140D02*
D03*
X115570Y229870D02*
D03*
X106680Y248920D02*
D03*
X142240Y190500D02*
D03*
X110490Y205740D02*
D03*
X161290Y344170D02*
D03*
X261620Y383540D02*
D03*
X271780Y416560D02*
D03*
M02*
