G04*
G04 #@! TF.GenerationSoftware,Altium Limited,Altium Designer,25.8.1 (18)*
G04*
G04 Layer_Color=8388736*
%FSLAX44Y44*%
%MOMM*%
G71*
G04*
G04 #@! TF.SameCoordinates,F1196714-0DB9-464D-985B-113CB06F2960*
G04*
G04*
G04 #@! TF.FilePolarity,Negative*
G04*
G01*
G75*
%ADD15C,1.2070*%
%ADD16R,0.7000X0.7000*%
%ADD17R,1.4500X1.4500*%
%ADD18R,0.4000X0.8000*%
%ADD19R,0.8000X0.4000*%
%ADD20R,0.7154X0.6725*%
%ADD21R,2.5582X1.0557*%
%ADD22R,1.0000X1.5500*%
%ADD24R,1.9062X1.6044*%
%ADD25R,0.8000X0.8000*%
G04:AMPARAMS|DCode=26|XSize=1.2052mm|YSize=0.5321mm|CornerRadius=0.2661mm|HoleSize=0mm|Usage=FLASHONLY|Rotation=0.000|XOffset=0mm|YOffset=0mm|HoleType=Round|Shape=RoundedRectangle|*
%AMROUNDEDRECTD26*
21,1,1.2052,0.0000,0,0,0.0*
21,1,0.6731,0.5321,0,0,0.0*
1,1,0.5321,0.3366,0.0000*
1,1,0.5321,-0.3366,0.0000*
1,1,0.5321,-0.3366,0.0000*
1,1,0.5321,0.3366,0.0000*
%
%ADD26ROUNDEDRECTD26*%
%ADD27R,1.1051X1.0062*%
%ADD28R,2.1800X2.0000*%
%ADD29R,0.6000X1.1500*%
%ADD35R,0.5596X0.4725*%
%ADD36R,1.2052X0.5321*%
%ADD37R,1.0121X1.1556*%
%ADD39R,0.6725X0.6654*%
%ADD40R,0.9121X0.8587*%
%ADD41R,0.3000X1.1500*%
%ADD42R,0.8000X0.8000*%
%ADD43R,1.6000X1.5000*%
%ADD44R,1.0532X1.1032*%
%ADD45R,0.7532X0.7532*%
%ADD46R,0.6532X0.7032*%
G04:AMPARAMS|DCode=47|XSize=1.7032mm|YSize=1.1032mm|CornerRadius=0.1511mm|HoleSize=0mm|Usage=FLASHONLY|Rotation=90.000|XOffset=0mm|YOffset=0mm|HoleType=Round|Shape=RoundedRectangle|*
%AMROUNDEDRECTD47*
21,1,1.7032,0.8010,0,0,90.0*
21,1,1.4010,1.1032,0,0,90.0*
1,1,0.3022,0.4005,0.7005*
1,1,0.3022,0.4005,-0.7005*
1,1,0.3022,-0.4005,-0.7005*
1,1,0.3022,-0.4005,0.7005*
%
%ADD47ROUNDEDRECTD47*%
%ADD48R,1.1032X1.0532*%
G04:AMPARAMS|DCode=49|XSize=0.4332mm|YSize=0.9032mm|CornerRadius=0.1511mm|HoleSize=0mm|Usage=FLASHONLY|Rotation=90.000|XOffset=0mm|YOffset=0mm|HoleType=Round|Shape=RoundedRectangle|*
%AMROUNDEDRECTD49*
21,1,0.4332,0.6011,0,0,90.0*
21,1,0.1311,0.9032,0,0,90.0*
1,1,0.3021,0.3005,0.0656*
1,1,0.3021,0.3005,-0.0656*
1,1,0.3021,-0.3005,-0.0656*
1,1,0.3021,-0.3005,0.0656*
%
%ADD49ROUNDEDRECTD49*%
%ADD50R,0.4532X0.7032*%
%ADD51C,1.7032*%
%ADD52R,1.7032X2.3032*%
%ADD53C,1.7532*%
%ADD54R,2.3032X1.7032*%
%ADD55R,1.7032X1.7032*%
%ADD56R,1.7532X1.7532*%
%ADD57C,0.6500*%
%ADD58C,0.8128*%
%ADD59C,0.6000*%
%ADD60C,0.7112*%
%ADD61C,0.8032*%
G36*
X135520Y442460D02*
X121020D01*
Y450960D01*
X127020Y456960D01*
X135520D01*
Y442460D01*
D02*
G37*
D15*
X128762Y449218D02*
D03*
D16*
X88520Y479460D02*
D03*
Y380460D02*
D03*
X207520D02*
D03*
Y479460D02*
D03*
D17*
X167770Y429960D02*
D03*
X148020D02*
D03*
X128270D02*
D03*
X167770Y410210D02*
D03*
X148020D02*
D03*
X128270D02*
D03*
X167770Y449710D02*
D03*
X148020D02*
D03*
D18*
X100020Y478960D02*
D03*
X108020D02*
D03*
X116020D02*
D03*
X124020D02*
D03*
X132020D02*
D03*
X140020D02*
D03*
X148020D02*
D03*
X156020D02*
D03*
X164020D02*
D03*
X172020D02*
D03*
X180020D02*
D03*
X188020D02*
D03*
X196020D02*
D03*
Y380960D02*
D03*
X188020D02*
D03*
X180020D02*
D03*
X172020D02*
D03*
X164020D02*
D03*
X156020D02*
D03*
X148020D02*
D03*
X140020D02*
D03*
X132020D02*
D03*
X124020D02*
D03*
X116020D02*
D03*
X108020D02*
D03*
X100020D02*
D03*
D19*
X207020Y469960D02*
D03*
Y461960D02*
D03*
Y453960D02*
D03*
Y445960D02*
D03*
Y437960D02*
D03*
Y429960D02*
D03*
Y421960D02*
D03*
Y413960D02*
D03*
Y405960D02*
D03*
Y397960D02*
D03*
Y389960D02*
D03*
X89020D02*
D03*
Y397960D02*
D03*
Y405960D02*
D03*
Y413960D02*
D03*
Y421960D02*
D03*
Y429960D02*
D03*
Y437960D02*
D03*
Y445960D02*
D03*
Y453960D02*
D03*
Y461960D02*
D03*
Y469960D02*
D03*
D20*
X207691Y354330D02*
D03*
X198120D02*
D03*
X140289Y340360D02*
D03*
X86654Y358140D02*
D03*
X96226D02*
D03*
X149860Y340360D02*
D03*
D21*
X256540Y327238D02*
D03*
Y371262D02*
D03*
D22*
X209800Y275590D02*
D03*
Y328090D02*
D03*
X177800Y275590D02*
D03*
Y328090D02*
D03*
X88140Y274740D02*
D03*
Y327240D02*
D03*
X120140D02*
D03*
Y274740D02*
D03*
D24*
X251460Y446309D02*
D03*
Y417291D02*
D03*
D25*
X215270Y248920D02*
D03*
X231770D02*
D03*
D26*
X213015Y175260D02*
D03*
Y165760D02*
D03*
X234025D02*
D03*
Y184760D02*
D03*
D27*
X189844Y220980D02*
D03*
X203856D02*
D03*
D28*
X263190Y71690D02*
D03*
Y32390D02*
D03*
X160990Y71690D02*
D03*
Y32390D02*
D03*
D29*
X244090Y77440D02*
D03*
X180090D02*
D03*
X188090D02*
D03*
X236090D02*
D03*
D35*
X78787Y162560D02*
D03*
X86313D02*
D03*
D36*
X213015Y184760D02*
D03*
D37*
X132080Y230007D02*
D03*
X90170Y248783D02*
D03*
X132080Y247513D02*
D03*
X90170Y231277D02*
D03*
D39*
X232410Y227286D02*
D03*
Y217214D02*
D03*
D40*
X266700Y166223D02*
D03*
Y181757D02*
D03*
D41*
X204590Y77440D02*
D03*
X209590D02*
D03*
X194590D02*
D03*
X199590D02*
D03*
X214590D02*
D03*
X219590D02*
D03*
X224590D02*
D03*
X229590D02*
D03*
D42*
X35560Y183520D02*
D03*
Y200020D02*
D03*
D43*
X162560Y195580D02*
D03*
Y231580D02*
D03*
D44*
X185570Y168910D02*
D03*
X172570D02*
D03*
D45*
X225950Y142240D02*
D03*
X234950D02*
D03*
D46*
X222250Y114300D02*
D03*
Y106300D02*
D03*
D47*
X100330Y189230D02*
D03*
D48*
X130810Y177650D02*
D03*
Y147170D02*
D03*
X68580Y184000D02*
D03*
X130810Y190650D02*
D03*
Y160170D02*
D03*
X68580Y197000D02*
D03*
D49*
X110830Y185230D02*
D03*
X89830D02*
D03*
Y189230D02*
D03*
X110830Y197230D02*
D03*
X89830D02*
D03*
Y193230D02*
D03*
Y181230D02*
D03*
X110830Y193230D02*
D03*
Y189230D02*
D03*
Y181230D02*
D03*
D50*
X212250Y114300D02*
D03*
X217250D02*
D03*
X227250D02*
D03*
X232250D02*
D03*
Y106300D02*
D03*
X227250D02*
D03*
X217250D02*
D03*
X212250D02*
D03*
D51*
X162720Y117690D02*
D03*
D52*
X109230Y108740D02*
D03*
D53*
X19050Y389890D02*
D03*
Y328930D02*
D03*
Y303530D02*
D03*
Y278130D02*
D03*
Y252730D02*
D03*
Y227330D02*
D03*
Y415290D02*
D03*
Y440690D02*
D03*
D54*
X62230Y78740D02*
D03*
Y138740D02*
D03*
D55*
X182720Y117690D02*
D03*
D56*
X19050Y354330D02*
D03*
Y466090D02*
D03*
D57*
X183190Y66690D02*
D03*
X240990D02*
D03*
D58*
X56849Y410718D02*
D03*
X72390Y383540D02*
D03*
X224238Y374650D02*
D03*
X256540Y311150D02*
D03*
X224238Y328930D02*
D03*
X217170Y97790D02*
D03*
X91440Y172720D02*
D03*
X59934Y171886D02*
D03*
X265430Y152400D02*
D03*
X240030D02*
D03*
X180340Y360680D02*
D03*
X163830Y356870D02*
D03*
X147320Y358140D02*
D03*
X129540Y359410D02*
D03*
X60960Y396240D02*
D03*
X225203Y409033D02*
D03*
X223520Y424180D02*
D03*
X53340Y196850D02*
D03*
X66040Y454660D02*
D03*
D59*
X157895Y449710D02*
D03*
Y429960D02*
D03*
Y410210D02*
D03*
X138145Y449710D02*
D03*
Y429960D02*
D03*
Y410210D02*
D03*
X167770Y420085D02*
D03*
X148020D02*
D03*
X128270D02*
D03*
X167770Y439835D02*
D03*
X148020D02*
D03*
X128270D02*
D03*
D60*
X215900Y380492D02*
D03*
X194056Y391668D02*
D03*
X196850Y468630D02*
D03*
X90170Y201930D02*
D03*
X119380Y160020D02*
D03*
X278130Y29210D02*
D03*
Y72390D02*
D03*
X146050Y30480D02*
D03*
Y71120D02*
D03*
X185420Y179070D02*
D03*
X186690Y469900D02*
D03*
X193040Y454660D02*
D03*
X181610D02*
D03*
X194310Y443230D02*
D03*
Y420370D02*
D03*
X193040Y431800D02*
D03*
Y408940D02*
D03*
X182880Y443230D02*
D03*
X180340Y431800D02*
D03*
X181610Y420370D02*
D03*
Y408940D02*
D03*
X175260Y469900D02*
D03*
X163830D02*
D03*
X152400D02*
D03*
X176530Y391160D02*
D03*
X165100Y392430D02*
D03*
X153670D02*
D03*
X186690Y398780D02*
D03*
X140970Y469900D02*
D03*
X129540D02*
D03*
X119380D02*
D03*
X114300Y454660D02*
D03*
X109220Y469900D02*
D03*
X114300Y431800D02*
D03*
X111760Y443230D02*
D03*
X114300Y400050D02*
D03*
X109220Y420370D02*
D03*
X104140Y454660D02*
D03*
X97790Y469900D02*
D03*
X102870Y431800D02*
D03*
Y400050D02*
D03*
X104140Y411480D02*
D03*
X99060Y420370D02*
D03*
X101600Y443230D02*
D03*
X34965Y394970D02*
D03*
X130810Y392430D02*
D03*
X119380Y389890D02*
D03*
X142240Y392430D02*
D03*
X98298Y392176D02*
D03*
X86360Y345440D02*
D03*
X213360Y154940D02*
D03*
X182880Y104140D02*
D03*
X115570Y229870D02*
D03*
X106680Y248920D02*
D03*
X142240Y190500D02*
D03*
X110490Y205740D02*
D03*
X161290Y344170D02*
D03*
X261620Y383540D02*
D03*
X271780Y416560D02*
D03*
D61*
X170180Y104140D02*
D03*
X160020Y168910D02*
D03*
X274320Y447040D02*
D03*
X226060Y262890D02*
D03*
X198120Y175260D02*
D03*
X189230Y203200D02*
D03*
X245110Y92710D02*
D03*
X222250Y123190D02*
D03*
X215900Y142240D02*
D03*
X186690Y346710D02*
D03*
X176530Y342900D02*
D03*
X177800Y257810D02*
D03*
X144780Y177800D02*
D03*
X140970Y323850D02*
D03*
X130810Y134620D02*
D03*
X101600Y170180D02*
D03*
X71120Y273050D02*
D03*
Y326390D02*
D03*
X91440Y107950D02*
D03*
X82550Y78740D02*
D03*
X54610Y182880D02*
D03*
X67310Y162560D02*
D03*
X265430Y196850D02*
D03*
X233680D02*
D03*
X218440Y224790D02*
D03*
M02*
