G04*
G04 #@! TF.GenerationSoftware,Altium Limited,Altium Designer,25.8.1 (18)*
G04*
G04 Layer_Color=16711935*
%FSLAX44Y44*%
%MOMM*%
G71*
G04*
G04 #@! TF.SameCoordinates,F1196714-0DB9-464D-985B-113CB06F2960*
G04*
G04*
G04 #@! TF.FilePolarity,Negative*
G04*
G01*
G75*
%ADD51C,1.7032*%
%ADD52R,1.7032X2.3032*%
%ADD53C,1.7532*%
%ADD54R,2.3032X1.7032*%
%ADD55R,1.7032X1.7032*%
%ADD56R,1.7532X1.7532*%
%ADD57C,0.6500*%
%ADD58C,0.8128*%
%ADD59C,0.6000*%
%ADD60C,0.7112*%
%ADD61C,0.8032*%
D51*
X162720Y117690D02*
D03*
D52*
X109230Y108740D02*
D03*
D53*
X19050Y389890D02*
D03*
Y328930D02*
D03*
Y303530D02*
D03*
Y278130D02*
D03*
Y252730D02*
D03*
Y227330D02*
D03*
Y415290D02*
D03*
Y440690D02*
D03*
D54*
X62230Y78740D02*
D03*
Y138740D02*
D03*
D55*
X182720Y117690D02*
D03*
D56*
X19050Y354330D02*
D03*
Y466090D02*
D03*
D57*
X183190Y66690D02*
D03*
X240990D02*
D03*
D58*
X56849Y410718D02*
D03*
X72390Y383540D02*
D03*
X224238Y374650D02*
D03*
X256540Y311150D02*
D03*
X224238Y328930D02*
D03*
X217170Y97790D02*
D03*
X91440Y172720D02*
D03*
X59934Y171886D02*
D03*
X265430Y152400D02*
D03*
X240030D02*
D03*
X180340Y360680D02*
D03*
X163830Y356870D02*
D03*
X147320Y358140D02*
D03*
X129540Y359410D02*
D03*
X60960Y396240D02*
D03*
X225203Y409033D02*
D03*
X223520Y424180D02*
D03*
X53340Y196850D02*
D03*
X66040Y454660D02*
D03*
D59*
X157895Y449710D02*
D03*
Y429960D02*
D03*
Y410210D02*
D03*
X138145Y449710D02*
D03*
Y429960D02*
D03*
Y410210D02*
D03*
X167770Y420085D02*
D03*
X148020D02*
D03*
X128270D02*
D03*
X167770Y439835D02*
D03*
X148020D02*
D03*
X128270D02*
D03*
D60*
X215900Y380492D02*
D03*
X194056Y391668D02*
D03*
X196850Y468630D02*
D03*
X90170Y201930D02*
D03*
X119380Y160020D02*
D03*
X278130Y29210D02*
D03*
Y72390D02*
D03*
X146050Y30480D02*
D03*
Y71120D02*
D03*
X185420Y179070D02*
D03*
X186690Y469900D02*
D03*
X193040Y454660D02*
D03*
X181610D02*
D03*
X194310Y443230D02*
D03*
Y420370D02*
D03*
X193040Y431800D02*
D03*
Y408940D02*
D03*
X182880Y443230D02*
D03*
X180340Y431800D02*
D03*
X181610Y420370D02*
D03*
Y408940D02*
D03*
X175260Y469900D02*
D03*
X163830D02*
D03*
X152400D02*
D03*
X176530Y391160D02*
D03*
X165100Y392430D02*
D03*
X153670D02*
D03*
X186690Y398780D02*
D03*
X140970Y469900D02*
D03*
X129540D02*
D03*
X119380D02*
D03*
X114300Y454660D02*
D03*
X109220Y469900D02*
D03*
X114300Y431800D02*
D03*
X111760Y443230D02*
D03*
X114300Y400050D02*
D03*
X109220Y420370D02*
D03*
X104140Y454660D02*
D03*
X97790Y469900D02*
D03*
X102870Y431800D02*
D03*
Y400050D02*
D03*
X104140Y411480D02*
D03*
X99060Y420370D02*
D03*
X101600Y443230D02*
D03*
X34965Y394970D02*
D03*
X130810Y392430D02*
D03*
X119380Y389890D02*
D03*
X142240Y392430D02*
D03*
X98298Y392176D02*
D03*
X86360Y345440D02*
D03*
X213360Y154940D02*
D03*
X182880Y104140D02*
D03*
X115570Y229870D02*
D03*
X106680Y248920D02*
D03*
X142240Y190500D02*
D03*
X110490Y205740D02*
D03*
X161290Y344170D02*
D03*
X261620Y383540D02*
D03*
X271780Y416560D02*
D03*
D61*
X170180Y104140D02*
D03*
X160020Y168910D02*
D03*
X274320Y447040D02*
D03*
X226060Y262890D02*
D03*
X198120Y175260D02*
D03*
X189230Y203200D02*
D03*
X245110Y92710D02*
D03*
X222250Y123190D02*
D03*
X215900Y142240D02*
D03*
X186690Y346710D02*
D03*
X176530Y342900D02*
D03*
X177800Y257810D02*
D03*
X144780Y177800D02*
D03*
X140970Y323850D02*
D03*
X130810Y134620D02*
D03*
X101600Y170180D02*
D03*
X71120Y273050D02*
D03*
Y326390D02*
D03*
X91440Y107950D02*
D03*
X82550Y78740D02*
D03*
X54610Y182880D02*
D03*
X67310Y162560D02*
D03*
X265430Y196850D02*
D03*
X233680D02*
D03*
X218440Y224790D02*
D03*
M02*
